<svg width="46" height="28" viewBox="0 0 46 28" fill="none" xmlns="http://www.w3.org/2000/svg">
<path d="M43.8488 0.221832H2.15084C1.24773 0.221832 0.515625 0.926827 0.515625 1.79648V26.2035C0.515625 27.0732 1.24773 27.7782 2.15084 27.7782H43.8488C44.7519 27.7782 45.484 27.0732 45.484 26.2035V1.79648C45.484 0.926827 44.7519 0.221832 43.8488 0.221832Z" fill="#F9F9F9"/>
<path d="M6.08203 4.93475H6.46712V14.781H6.08203V4.93475ZM6.85222 4.93475H7.23731V14.781H6.85222V4.93475ZM9.16441 4.93475H9.5495V14.781H9.16441V4.93475ZM16.6602 4.93475H17.0453V14.781H16.6602V4.93475ZM19.1662 4.93475H19.5513V14.781H19.1662V4.93475ZM21.5961 4.93475H21.9812V14.781H21.5961V4.93475ZM22.2224 4.93475H22.6075V14.781H22.2224V4.93475ZM22.8495 4.93475H23.2346V14.781H22.8495V4.93475ZM23.5543 4.93475H23.9394V14.781H23.5543V4.93475ZM24.2591 4.93475H24.6441V14.781H24.2591V4.93475ZM26.218 4.93475H26.6031V14.781H26.218V4.93475ZM31.0754 4.93475H31.4605V14.781H31.0754V4.93475ZM36.1421 4.93475H36.5272V14.781H36.1421V4.93475ZM37.528 4.93475H37.9131V14.781H37.528V4.93475ZM38.5296 4.93475H38.9146V14.781H38.5296V4.93475ZM39.146 4.93475H39.5311V14.781H39.146V4.93475ZM11.7072 4.93475H12.0923V14.781H11.7072V4.93475ZM7.85378 4.93475H8.54711V14.781H7.85378V4.93475ZM12.4299 4.93475H13.1233V14.781H12.4299V4.93475ZM15.6431 4.93475H16.3364V14.781H15.6431V4.93475ZM17.2881 4.93475H17.9815V14.781H17.2881V4.93475ZM19.8734 4.93475H20.5667V14.781H19.8734V4.93475ZM27.2441 4.93475H28.3226V14.781H27.2441V4.93475ZM28.6529 4.93475H29.5007V14.781H28.6529V4.93475ZM30.1393 4.93475H30.8326V14.781H30.1393V4.93475ZM32.1048 4.93475H33.2609V14.781H32.1048V4.93475ZM34.3688 4.93475H35.5248V14.781H34.3688V4.93475ZM9.93459 4.93475H11.3213V14.781H9.93459V4.93475ZM13.5288 4.93475H14.6072V14.781H13.5288V4.93475Z" fill="#010101"/>
<path d="M6.58105 23.5235V17.8878H8.77714C9.14411 17.8742 9.51013 17.9323 9.85311 18.0587C10.116 18.1669 10.3377 18.3509 10.4876 18.5854C10.6361 18.8073 10.7158 19.0654 10.7173 19.3294C10.7173 19.5701 10.6468 19.8059 10.5137 20.0096C10.364 20.2342 10.1506 20.4129 9.8989 20.5246C10.222 20.6044 10.5092 20.7839 10.7165 21.0355C10.9084 21.2811 11.0089 21.5817 11.0019 21.889C11.0041 22.144 10.9447 22.396 10.8285 22.6251C10.7302 22.8306 10.5825 23.0107 10.3976 23.1503C10.2052 23.2831 9.98733 23.3778 9.75664 23.429C9.4473 23.4974 9.13045 23.5291 8.81312 23.5235H6.58105ZM7.35615 20.2561H8.6218C8.869 20.2654 9.11639 20.2435 9.35764 20.1907C9.53418 20.1476 9.69072 20.049 9.80242 19.9104C9.90641 19.7664 9.95893 19.5937 9.95204 19.4184C9.95565 19.2443 9.90711 19.0729 9.81223 18.9247C9.72167 18.784 9.581 18.6799 9.41651 18.6318C9.12474 18.5672 8.82526 18.5407 8.52614 18.5531H7.35615V20.2561ZM7.35615 22.859H8.81312C8.98936 22.8634 9.16569 22.8545 9.34048 22.8322C9.49858 22.8075 9.65035 22.7541 9.78771 22.6747C9.91319 22.5966 10.015 22.488 10.0829 22.3598C10.162 22.2142 10.202 22.0518 10.199 21.8874C10.2044 21.6913 10.1458 21.4985 10.0314 21.3363C9.91846 21.1805 9.75471 21.0655 9.56613 21.0095C9.28731 20.9369 8.99875 20.9051 8.7101 20.9151H7.35615V22.859ZM12.1334 20.7789C12.0845 19.9759 12.3655 19.1865 12.9159 18.5814C13.1752 18.3192 13.4894 18.1128 13.8376 17.976C14.1859 17.8392 14.5603 17.7751 14.9362 17.7878C15.4495 17.781 15.9549 17.9101 16.3972 18.161C16.8272 18.4058 17.1723 18.7677 17.389 19.2011C17.6227 19.673 17.7394 20.1907 17.7299 20.7135C17.7395 21.245 17.6164 21.771 17.371 22.2472C17.1485 22.6807 16.7932 23.0379 16.3531 23.2707C15.9181 23.5017 15.4288 23.6215 14.9321 23.6187C14.4123 23.627 13.9005 23.4941 13.4555 23.2353C13.0273 22.9853 12.6842 22.6203 12.4686 22.185C12.2465 21.7472 12.1318 21.2661 12.1334 20.7789V20.7789ZM12.9322 20.7907C12.8989 21.3771 13.1042 21.9529 13.5045 22.396C13.6851 22.5864 13.9059 22.7373 14.1522 22.8385C14.3985 22.9397 14.6644 22.9888 14.9321 22.9826C15.2014 22.9892 15.469 22.9396 15.7165 22.8373C15.964 22.7349 16.1856 22.5823 16.3662 22.3897C16.77 21.9195 16.9721 21.3185 16.9311 20.7096C16.9418 20.2973 16.8607 19.8876 16.6932 19.5081C16.5455 19.1808 16.2995 18.9036 15.9868 18.7121C15.6743 18.523 15.3117 18.4249 14.9427 18.4295C14.6812 18.4257 14.4215 18.4718 14.1786 18.5652C13.9356 18.6585 13.7143 18.7973 13.5274 18.9735C13.3063 19.2221 13.1396 19.5111 13.0373 19.8232C12.935 20.1353 12.8993 20.4641 12.9322 20.7899V20.7907ZM18.9997 23.5235V17.8878H19.7739V22.8582H22.656V23.5235H18.9997ZM23.8971 23.5235V17.8878H28.1291V18.5531H24.6714V20.2789H27.9091V20.9403H24.6714V22.8582H28.2648V23.5235H23.8971ZM31.1264 23.5235V18.5531H29.1977V17.8878H33.8368V18.5531H31.9007V23.5235H31.1264ZM34.5505 20.7789C34.502 19.9756 34.7837 19.1863 35.3346 18.5814C35.594 18.3192 35.9082 18.1128 36.2564 17.976C36.6047 17.8392 36.9791 17.7751 37.3549 17.7878C37.8683 17.781 38.3737 17.9101 38.816 18.161C39.246 18.4058 39.5911 18.7677 39.8078 19.2011C40.0414 19.673 40.1581 20.1907 40.1487 20.7135C40.1583 21.245 40.0352 21.771 39.7898 22.2472C39.5665 22.6814 39.21 23.039 38.7686 23.2715C38.3335 23.5025 37.8443 23.6223 37.3476 23.6195C36.8274 23.6277 36.3153 23.4946 35.8702 23.2353C35.4428 22.985 35.1007 22.6199 34.8858 22.185C34.6637 21.7472 34.549 21.2661 34.5505 20.7789V20.7789ZM35.3493 20.7907C35.3161 21.3771 35.5214 21.9529 35.9217 22.396C36.1022 22.5864 36.3231 22.7373 36.5693 22.8385C36.8156 22.9397 37.0815 22.9888 37.3492 22.9826C37.6193 22.99 37.8878 22.9408 38.1362 22.8386C38.3846 22.7364 38.6071 22.5835 38.7882 22.3905C39.192 21.9203 39.3941 21.3193 39.3532 20.7104C39.3615 20.2976 39.2779 19.8879 39.1079 19.5089C38.9602 19.1816 38.7142 18.9044 38.4015 18.7129C38.089 18.5238 37.7264 18.4257 37.3574 18.4303C37.0959 18.4265 36.8361 18.4726 36.5932 18.5659C36.3503 18.6593 36.129 18.7981 35.9421 18.9743C35.7214 19.2229 35.555 19.5118 35.453 19.8238C35.351 20.1358 35.3155 20.4644 35.3485 20.7899L35.3493 20.7907Z" fill="black"/>
</svg>
