<svg width="44" height="28" viewBox="0 0 44 28" fill="none" xmlns="http://www.w3.org/2000/svg">
<rect width="44" height="28" rx="2" fill="white"/>
<path d="M11.9052 24.7287V23.4331C11.9147 23.3242 11.8949 23.2149 11.8469 23.1125C11.7989 23.0101 11.724 22.917 11.627 22.8393C11.5301 22.7617 11.4134 22.7013 11.2847 22.6622C11.156 22.6231 11.0183 22.6062 10.8807 22.6126C10.7006 22.6033 10.5206 22.6324 10.3596 22.697C10.1985 22.7615 10.0623 22.8592 9.96515 22.9797C9.87657 22.8628 9.74984 22.767 9.5983 22.7024C9.44676 22.6378 9.27603 22.6068 9.10411 22.6126C8.95426 22.6066 8.80502 22.6317 8.67119 22.6855C8.53737 22.7393 8.4236 22.8199 8.34117 22.9192V22.6644H7.77441V24.7287H8.34662V23.5929C8.33445 23.5223 8.34211 23.4505 8.36905 23.3825C8.39599 23.3145 8.44154 23.2521 8.50246 23.1997C8.56338 23.1473 8.63815 23.1062 8.72143 23.0794C8.80471 23.0526 8.89445 23.0406 8.98422 23.0445C9.36024 23.0445 9.55098 23.2388 9.55098 23.5886V24.7374H10.1232V23.5929C10.1115 23.5224 10.1195 23.4507 10.1466 23.3829C10.1738 23.3151 10.2193 23.2529 10.2802 23.2006C10.341 23.1482 10.4155 23.1072 10.4986 23.0802C10.5816 23.0532 10.6711 23.041 10.7608 23.0445C11.1477 23.0445 11.333 23.2388 11.333 23.5886V24.7374L11.9052 24.7287ZM20.3711 22.6644H19.4393V22.0382H18.8671V22.6644H18.3493V23.0747H18.878V24.0248C18.878 24.5041 19.1123 24.7892 19.7826 24.7892C20.033 24.7898 20.2786 24.7345 20.491 24.6294L20.3275 24.245C20.1756 24.3169 20.0031 24.357 19.8262 24.3616C19.5537 24.3616 19.4502 24.2234 19.4502 24.0161V23.0747H20.3766L20.3711 22.6644ZM25.2049 22.6126C25.0667 22.6094 24.93 22.6358 24.8092 22.689C24.6883 22.7422 24.5878 22.8202 24.5183 22.9149V22.6644H23.957V24.7287H24.5237V23.5713C24.5237 23.2302 24.709 23.0401 25.0687 23.0401C25.1899 23.0388 25.3103 23.0564 25.4229 23.092L25.5973 22.6601C25.4679 22.6234 25.3315 22.6044 25.194 22.604L25.2049 22.6126ZM17.897 22.8285C17.5762 22.6774 17.2074 22.6024 16.8344 22.6126C16.175 22.6126 15.7444 22.8631 15.7444 23.2734C15.7444 23.6102 16.0605 23.8175 16.6436 23.8823L16.9161 23.9125C17.2267 23.9471 17.3739 24.0118 17.3739 24.1284C17.3739 24.2882 17.1668 24.3789 16.7799 24.3789C16.4686 24.386 16.1634 24.31 15.9134 24.163L15.6409 24.5128C15.971 24.6955 16.3665 24.7893 16.769 24.7805C17.521 24.7805 17.957 24.4998 17.957 24.1068C17.957 23.7138 17.6137 23.5541 17.0469 23.4893L16.7744 23.4591C16.5292 23.4331 16.333 23.3943 16.333 23.2561C16.333 23.1179 16.5183 23.0142 16.8289 23.0142C17.116 23.0169 17.3975 23.0778 17.6463 23.1913L17.897 22.8285ZM33.0769 22.6126C32.9387 22.6094 32.802 22.6358 32.6811 22.689C32.5603 22.7422 32.4598 22.8202 32.3902 22.9149V22.6644H31.8289V24.7287H32.3957V23.5713C32.3957 23.2302 32.581 23.0401 32.9406 23.0401C33.0618 23.0388 33.1822 23.0564 33.2948 23.092L33.4692 22.6601C33.3398 22.6234 33.2034 22.6044 33.066 22.604L33.0769 22.6126ZM25.7744 23.6923C25.7677 23.8373 25.7992 23.9819 25.867 24.1167C25.9349 24.2516 26.0374 24.3737 26.1683 24.4754C26.2991 24.577 26.4552 24.6559 26.6267 24.7069C26.7981 24.758 26.9812 24.7801 27.1641 24.7719C27.5044 24.7856 27.8388 24.6978 28.1014 24.5257L27.8289 24.163C27.633 24.2814 27.3941 24.3465 27.1477 24.3487C26.9382 24.3352 26.7428 24.2598 26.6003 24.1374C26.4578 24.0149 26.3787 23.8545 26.3787 23.6879C26.3787 23.5214 26.4578 23.3609 26.6003 23.2385C26.7428 23.1161 26.9382 23.0406 27.1477 23.0272C27.3941 23.0294 27.633 23.0945 27.8289 23.2129L28.1014 22.8501C27.8388 22.6781 27.5044 22.5903 27.1641 22.604C26.9812 22.5958 26.7981 22.6179 26.6267 22.669C26.4552 22.72 26.2991 22.7989 26.1683 22.9005C26.0374 23.0021 25.9349 23.1243 25.867 23.2591C25.7992 23.394 25.7677 23.5386 25.7744 23.6836V23.6923ZM31.0823 23.6923V22.6644H30.5156V22.9149C30.4193 22.8168 30.295 22.7382 30.1529 22.6856C30.0107 22.6331 29.8549 22.608 29.6981 22.6126C29.3368 22.6126 28.9903 22.7264 28.7348 22.9288C28.4793 23.1313 28.3357 23.4059 28.3357 23.6923C28.3357 23.9786 28.4793 24.2532 28.7348 24.4557C28.9903 24.6582 29.3368 24.7719 29.6981 24.7719C29.8549 24.7765 30.0107 24.7515 30.1529 24.6989C30.295 24.6463 30.4193 24.5677 30.5156 24.4696V24.7201H31.0823V23.6923ZM28.9733 23.6923C28.9824 23.5707 29.036 23.454 29.1278 23.3563C29.2195 23.2587 29.3452 23.1845 29.4895 23.1427C29.6338 23.101 29.7904 23.0936 29.9399 23.1215C30.0894 23.1494 30.2253 23.2114 30.331 23.2997C30.4366 23.3881 30.5074 23.499 30.5345 23.6188C30.5616 23.7386 30.544 23.8621 30.4836 23.974C30.4233 24.0859 30.323 24.1815 30.1951 24.2488C30.0671 24.3161 29.9171 24.3524 29.7635 24.353C29.6556 24.3541 29.5486 24.3375 29.4492 24.3042C29.3498 24.2709 29.2602 24.2217 29.186 24.1596C29.1118 24.0976 29.0546 24.024 29.018 23.9436C28.9814 23.8631 28.9662 23.7776 28.9733 23.6923V23.6923ZM22.1341 22.6126C21.7728 22.6166 21.4282 22.7342 21.1763 22.9395C20.9244 23.1448 20.7857 23.421 20.7908 23.7074C20.7958 23.9937 20.9442 24.2667 21.2033 24.4664C21.4624 24.666 21.8109 24.7759 22.1722 24.7719C22.5643 24.7878 22.9498 24.6878 23.254 24.4912L22.9815 24.1587C22.7663 24.2954 22.4998 24.3714 22.224 24.3746C22.0367 24.3874 21.8504 24.3417 21.7049 24.2473C21.5594 24.153 21.466 24.0174 21.4447 23.8693H23.3793C23.3793 23.8132 23.3793 23.757 23.3793 23.6966C23.3793 23.0488 22.8725 22.6169 22.1423 22.6169L22.1341 22.6126ZM22.1341 23.0142C22.2189 23.0128 22.3032 23.0246 22.3823 23.049C22.4613 23.0734 22.5335 23.1099 22.5948 23.1565C22.656 23.203 22.7051 23.2586 22.7392 23.3202C22.7733 23.3817 22.7917 23.448 22.7935 23.5152H21.4311C21.441 23.3766 21.5189 23.2465 21.6483 23.1529C21.7776 23.0593 21.9481 23.0095 22.1232 23.0142H22.1341ZM36.333 23.6966V21.8353H35.788V22.9149C35.6918 22.8168 35.5675 22.7382 35.4253 22.6856C35.2832 22.6331 35.1273 22.608 34.9706 22.6126C34.6093 22.6126 34.2627 22.7264 34.0072 22.9288C33.7517 23.1313 33.6082 23.4059 33.6082 23.6923C33.6082 23.9786 33.7517 24.2532 34.0072 24.4557C34.2627 24.6582 34.6093 24.7719 34.9706 24.7719C35.1273 24.7765 35.2832 24.7515 35.4253 24.6989C35.5675 24.6463 35.6918 24.5677 35.788 24.4696V24.7201H36.333V23.6966ZM37.2785 24.4286C37.3139 24.4282 37.3491 24.4334 37.382 24.4437C37.4133 24.4538 37.442 24.4685 37.4665 24.4869C37.4905 24.5055 37.5099 24.5275 37.5237 24.5517C37.5375 24.5769 37.5447 24.6041 37.5447 24.6315C37.5447 24.659 37.5375 24.6862 37.5237 24.7114C37.5099 24.7356 37.4905 24.7576 37.4665 24.7762C37.442 24.7946 37.4133 24.8093 37.382 24.8194C37.3494 24.8308 37.3142 24.8367 37.2785 24.8367C37.2268 24.8364 37.1764 24.8244 37.133 24.8023C37.0895 24.7801 37.055 24.7486 37.0333 24.7114C37.0196 24.6862 37.0126 24.659 37.0126 24.6315C37.0126 24.6041 37.0196 24.5769 37.0333 24.5517C37.0472 24.5275 37.0665 24.5055 37.0905 24.4869C37.115 24.4685 37.1437 24.4538 37.175 24.4437C37.2104 24.4325 37.2485 24.4274 37.2867 24.4286H37.2785ZM37.2785 24.7935C37.3057 24.7936 37.3326 24.7892 37.3575 24.7805C37.381 24.7722 37.4022 24.7605 37.4202 24.746C37.4543 24.7165 37.4732 24.678 37.4732 24.638C37.4732 24.598 37.4543 24.5595 37.4202 24.5301C37.4023 24.5155 37.381 24.5038 37.3575 24.4955C37.3326 24.4869 37.3057 24.4825 37.2785 24.4826C37.2513 24.4827 37.2245 24.4871 37.1995 24.4955C37.175 24.5035 37.1528 24.5152 37.1341 24.5301C37.1 24.5595 37.0811 24.598 37.0811 24.638C37.0811 24.678 37.1 24.7165 37.1341 24.746C37.1528 24.7608 37.175 24.7725 37.1995 24.7805C37.227 24.7899 37.2568 24.7944 37.2867 24.7935H37.2785ZM37.2948 24.5365C37.3203 24.5356 37.3453 24.5417 37.3657 24.5538C37.374 24.5593 37.3806 24.5662 37.3849 24.5741C37.3891 24.582 37.391 24.5906 37.3902 24.5992C37.3906 24.6063 37.3891 24.6135 37.3858 24.6202C37.3825 24.6269 37.3775 24.6329 37.3711 24.638C37.3553 24.6494 37.3352 24.6562 37.3139 24.6575L37.3929 24.7287H37.3303L37.2567 24.6575H37.2322V24.7287H37.1804V24.5387L37.2948 24.5365ZM37.2349 24.5732V24.6251H37.2948C37.3055 24.6276 37.3169 24.6276 37.3275 24.6251C37.3295 24.6221 37.3305 24.6187 37.3305 24.6154C37.3305 24.612 37.3295 24.6086 37.3275 24.6056C37.3295 24.6026 37.3305 24.5993 37.3305 24.5959C37.3305 24.5925 37.3295 24.5892 37.3275 24.5862C37.3169 24.5837 37.3055 24.5837 37.2948 24.5862L37.2349 24.5732ZM34.2376 23.6966C34.2467 23.5751 34.3003 23.4583 34.3921 23.3607C34.4838 23.263 34.6095 23.1888 34.7538 23.1471C34.8981 23.1053 35.0547 23.098 35.2042 23.1259C35.3537 23.1538 35.4896 23.2157 35.5953 23.304C35.701 23.3924 35.7717 23.5033 35.7988 23.6231C35.8259 23.7429 35.8083 23.8664 35.748 23.9783C35.6876 24.0903 35.5873 24.1858 35.4594 24.2531C35.3314 24.3205 35.1814 24.3567 35.0278 24.3573C34.9199 24.3584 34.8129 24.3418 34.7135 24.3085C34.6142 24.2752 34.5245 24.226 34.4503 24.1639C34.3761 24.1019 34.3189 24.0283 34.2823 23.9479C34.2457 23.8675 34.2305 23.7819 34.2376 23.6966V23.6966ZM15.1014 23.6966V22.6644H14.5346V22.9149C14.4384 22.8168 14.3141 22.7382 14.1719 22.6856C14.0298 22.6331 13.8739 22.608 13.7172 22.6126C13.3559 22.6126 13.0093 22.7264 12.7538 22.9288C12.4983 23.1313 12.3548 23.4059 12.3548 23.6923C12.3548 23.9786 12.4983 24.2532 12.7538 24.4557C13.0093 24.6582 13.3559 24.7719 13.7172 24.7719C13.8739 24.7765 14.0298 24.7515 14.1719 24.6989C14.3141 24.6463 14.4384 24.5677 14.5346 24.4696V24.7201H15.1014V23.6966ZM12.9924 23.6966C13.0014 23.5751 13.0551 23.4583 13.1468 23.3607C13.2386 23.263 13.3643 23.1888 13.5086 23.1471C13.6529 23.1053 13.8094 23.098 13.9589 23.1259C14.1085 23.1538 14.2444 23.2157 14.3501 23.304C14.4557 23.3924 14.5265 23.5033 14.5536 23.6231C14.5807 23.7429 14.563 23.8664 14.5027 23.9783C14.4424 24.0903 14.3421 24.1858 14.2141 24.2531C14.0862 24.3205 13.9362 24.3567 13.7826 24.3573C13.6742 24.359 13.5666 24.3428 13.4666 24.3098C13.3666 24.2768 13.2763 24.2277 13.2015 24.1655C13.1267 24.1034 13.069 24.0297 13.032 23.9489C12.9951 23.8682 12.9798 23.7823 12.9869 23.6966H12.9924Z" fill="#231F20"/>
<path d="M26.2921 6.93399H17.709V19.1577H26.2921V6.93399Z" fill="#FF5F00"/>
<path d="M18.2538 13.047C18.2522 11.8696 18.5887 10.7074 19.2378 9.64827C19.8869 8.58918 20.8316 7.66102 22.0004 6.93407C20.5533 6.03283 18.8154 5.4724 16.9854 5.31684C15.1554 5.16127 13.307 5.41685 11.6516 6.05436C9.99624 6.69186 8.60057 7.68558 7.62413 8.92194C6.64769 10.1583 6.12988 11.5874 6.12988 13.0459C6.12988 14.5045 6.64769 15.9336 7.62413 17.1699C8.60057 18.4063 9.99624 19.4 11.6516 20.0375C13.307 20.675 15.1554 20.9306 16.9854 20.775C18.8154 20.6195 20.5533 20.059 22.0004 19.1578C20.832 18.4311 19.8875 17.5033 19.2384 16.4446C18.5893 15.3859 18.2526 14.2241 18.2538 13.047V13.047Z" fill="#EB001B"/>
<path d="M37.8719 13.0469C37.8719 14.5056 37.354 15.9348 36.3773 17.1712C35.4007 18.4076 34.0049 19.4013 32.3492 20.0387C30.6936 20.6761 28.8451 20.9315 27.015 20.7757C25.1849 20.6199 23.447 20.0592 22 19.1577C23.1679 18.4304 24.1121 17.5023 24.7614 16.4435C25.4107 15.3848 25.748 14.223 25.748 13.0459C25.748 11.8687 25.4107 10.7069 24.7614 9.64818C24.1121 8.58943 23.1679 7.66136 22 6.93399C23.447 6.03247 25.1849 5.47177 27.015 5.31598C28.8451 5.16019 30.6936 5.41561 32.3492 6.05302C34.0049 6.69044 35.4007 7.68414 36.3773 8.92054C37.354 10.1569 37.8719 11.5861 37.8719 13.0448V13.0469Z" fill="#F79E1B"/>
<path d="M36.9345 17.8621V17.6117H37.0625V17.5598H36.7383V17.6117H36.8772V17.8621H36.9345ZM37.5639 17.8621V17.5598H37.4658L37.3514 17.7758L37.2369 17.5598H37.1497V17.8621H37.2206V17.6354L37.3268 17.8319H37.4004L37.5067 17.6354V17.8643L37.5639 17.8621Z" fill="#F79E1B"/>
</svg>
