<svg width="36" height="31" viewBox="0 0 36 31" fill="none" xmlns="http://www.w3.org/2000/svg">
<path d="M26.4375 30.8749C27.2497 30.8749 28.0287 30.6137 28.603 30.1488C29.1773 29.6839 29.5 29.0533 29.5 28.3958C29.5 27.7382 29.1773 27.1077 28.603 26.6427C28.0287 26.1778 27.2497 25.9166 26.4375 25.9166C25.6253 25.9166 24.8463 26.1778 24.272 26.6427C23.6977 27.1077 23.375 27.7382 23.375 28.3958C23.375 29.0533 23.6977 29.6839 24.272 30.1488C24.8463 30.6137 25.6253 30.8749 26.4375 30.8749ZM12.4375 30.8749C13.2497 30.8749 14.0287 30.6137 14.603 30.1488C15.1773 29.6839 15.5 29.0533 15.5 28.3958C15.5 27.7382 15.1773 27.1077 14.603 26.6427C14.0287 26.1778 13.2497 25.9166 12.4375 25.9166C11.6253 25.9166 10.8463 26.1778 10.272 26.6427C9.69765 27.1077 9.375 27.7382 9.375 28.3958C9.375 29.0533 9.69765 29.6839 10.272 30.1488C10.8463 30.6137 11.6253 30.8749 12.4375 30.8749ZM6.47 4.58159L6.12 8.05242C6.05 8.71825 6.6975 9.27075 7.52 9.27075H34.3125C35.0475 9.27075 35.66 8.81742 35.7125 8.22242C35.94 5.71492 33.5775 3.67492 30.48 3.67492H8.9725C8.7975 3.05159 8.4475 2.45659 7.905 1.96075C7.03 1.20992 5.805 0.770752 4.545 0.770752H1.5C0.7825 0.770752 0.1875 1.25242 0.1875 1.83325C0.1875 2.41409 0.7825 2.89575 1.5 2.89575H4.545C5.0875 2.89575 5.595 3.07992 5.9625 3.39159C6.33 3.71742 6.505 4.14242 6.47 4.58159ZM33.8925 11.3958H7.0475C6.3125 11.3958 5.7175 11.8491 5.6475 12.4299L5.0175 18.5924C4.95742 19.1634 5.04444 19.7383 5.27305 20.2806C5.50165 20.8229 5.86687 21.3209 6.34558 21.7431C6.82428 22.1652 7.40605 22.5023 8.05403 22.733C8.70202 22.9637 9.40212 23.083 10.11 23.0833H29.57C32.195 23.0833 34.505 21.3408 34.6975 19.2158L35.275 12.5999C35.2917 12.4456 35.2681 12.2901 35.206 12.1436C35.1438 11.9971 35.0444 11.8628 34.9141 11.7493C34.7838 11.6358 34.6256 11.5457 34.4496 11.4848C34.2736 11.4239 34.0839 11.3936 33.8925 11.3958Z" fill="white"/>
</svg>
