<svg width="35" height="28" viewBox="0 0 35 28" fill="none" xmlns="http://www.w3.org/2000/svg">
<g filter="url(#filter0_b_112_362)">
<path d="M30.625 6.06665H4.375C3.77708 6.06665 3.28125 5.67376 3.28125 5.19998C3.28125 4.7262 3.77708 4.33331 4.375 4.33331H30.625C31.2229 4.33331 31.7188 4.7262 31.7188 5.19998C31.7188 5.67376 31.2229 6.06665 30.625 6.06665ZM30.625 11.8444H4.375C3.77708 11.8444 3.28125 11.4515 3.28125 10.9778C3.28125 10.504 3.77708 10.1111 4.375 10.1111H30.625C31.2229 10.1111 31.7188 10.504 31.7188 10.9778C31.7188 11.4515 31.2229 11.8444 30.625 11.8444ZM30.625 17.6222H4.375C3.77708 17.6222 3.28125 17.2293 3.28125 16.7555C3.28125 16.2818 3.77708 15.8889 4.375 15.8889H30.625C31.2229 15.8889 31.7188 16.2818 31.7188 16.7555C31.7188 17.2293 31.2229 17.6222 30.625 17.6222ZM30.625 23.4H4.375C3.77708 23.4 3.28125 23.0071 3.28125 22.5333C3.28125 22.0595 3.77708 21.6666 4.375 21.6666H30.625C31.2229 21.6666 31.7188 22.0595 31.7188 22.5333C31.7188 23.0071 31.2229 23.4 30.625 23.4Z" fill="white"/>
</g>
<defs>
<filter id="filter0_b_112_362" x="-4" y="-4" width="43" height="35.7333" filterUnits="userSpaceOnUse" color-interpolation-filters="sRGB">
<feFlood flood-opacity="0" result="BackgroundImageFix"/>
<feGaussianBlur in="BackgroundImageFix" stdDeviation="2"/>
<feComposite in2="SourceAlpha" operator="in" result="effect1_backgroundBlur_112_362"/>
<feBlend mode="normal" in="SourceGraphic" in2="effect1_backgroundBlur_112_362" result="shape"/>
</filter>
</defs>
</svg>
