<svg width="123" height="147" viewBox="0 0 123 147" fill="none" xmlns="http://www.w3.org/2000/svg">
<rect width="123" height="147" fill="#A7A2A2"/>
<path d="M23.1963 51.54L24.4163 51.78C24.5763 51.82 24.6563 51.94 24.6563 52.14V53H19.8363V52.14C19.8363 51.9267 19.9296 51.8 20.1163 51.76L21.2763 51.54V40.12L20.0763 39.88C19.9163 39.84 19.8363 39.72 19.8363 39.52V38.68H24.6563V39.52C24.6563 39.7333 24.5563 39.86 24.3563 39.9L23.1963 40.12V51.54ZM42.27 40.12V51.52C42.91 51.64 43.29 51.72 43.41 51.76C43.6233 51.8 43.73 51.92 43.73 52.12V53H38.93V52.12C38.93 51.92 39.03 51.8 39.23 51.76L40.57 51.52V42.46C40.57 42.0467 40.5833 41.7333 40.61 41.52L35.69 50.48C35.53 50.7867 35.3033 50.94 35.01 50.94H34.73C34.41 50.94 34.17 50.7867 34.01 50.48L29.03 41.54C29.07 41.8733 29.09 42.1733 29.09 42.44V51.52L30.45 51.76C30.6233 51.8 30.71 51.92 30.71 52.12V53H25.93V52.12C25.93 51.92 26.0367 51.8 26.25 51.76L27.37 51.52V40.12C26.7567 40 26.3833 39.92 26.25 39.88C26.0367 39.84 25.93 39.72 25.93 39.52V38.64H28.81C28.9967 38.64 29.13 38.66 29.21 38.7C29.33 38.7533 29.4167 38.84 29.47 38.96L34.41 47.8C34.53 48.0133 34.6833 48.36 34.87 48.84C34.9767 48.5333 35.13 48.18 35.33 47.78L40.17 38.96C40.2233 38.8533 40.3167 38.7667 40.45 38.7C40.53 38.66 40.6633 38.64 40.85 38.64H43.73V39.52C43.73 39.72 43.6233 39.84 43.41 39.88L42.27 40.12ZM59.032 51.88C59.2054 51.92 59.292 52.0267 59.292 52.2V53H55.172V52.2C55.172 52.0267 55.2654 51.92 55.452 51.88L56.272 51.64L55.152 48.76H48.972L47.852 51.64L48.672 51.88C48.8454 51.92 48.932 52.0267 48.932 52.2V53H44.832V52.2C44.832 52.0267 44.9187 51.92 45.092 51.88L45.892 51.64L51.092 38.68H53.052L58.232 51.64L59.032 51.88ZM52.492 41.86C52.3854 41.5933 52.2387 41.14 52.052 40.5C51.892 41.1133 51.7587 41.5667 51.652 41.86L49.512 47.36H54.612L52.492 41.86ZM67.0316 51.6C68.3382 51.6 69.5182 51.32 70.5716 50.76V47.6H68.3516C68.2182 47.6 68.1116 47.56 68.0316 47.48C67.9516 47.4 67.9116 47.3133 67.9116 47.22V46.12H72.3116V51.62C70.8849 52.6467 69.0716 53.16 66.8716 53.16C64.7782 53.16 63.0782 52.4867 61.7716 51.14C60.4516 49.78 59.7916 48.0133 59.7916 45.84C59.7916 43.6267 60.4449 41.8667 61.7516 40.56C63.0982 39.2 64.8849 38.52 67.1116 38.52C68.6316 38.52 70.3182 38.8667 72.1716 39.56V42.88H71.2116C70.9716 42.88 70.8316 42.7733 70.7916 42.56C70.7916 42.4933 70.7716 42.3267 70.7316 42.06C70.7049 41.7933 70.6716 41.3533 70.6316 40.74C70.2049 40.6067 69.9582 40.5333 69.8916 40.52C69.0782 40.3067 68.2182 40.2 67.3116 40.2C66.3382 40.2 65.5249 40.3333 64.8716 40.6C64.2316 40.8667 63.6782 41.24 63.2116 41.72C62.2649 42.72 61.7916 44.0933 61.7916 45.84C61.7916 47.64 62.2782 49.0533 63.2516 50.08C64.2249 51.0933 65.4849 51.6 67.0316 51.6ZM83.9834 42.14H83.0234C82.7834 42.14 82.6434 42.0267 82.6034 41.8L82.4634 40.26H77.1034V45.02H82.3834V46.54H77.1034V51.44H82.4634L82.5834 50C82.6234 49.7867 82.7701 49.68 83.0234 49.68H83.9834V53H73.7034V52.16C73.7034 51.9467 73.8034 51.82 74.0034 51.78L75.1434 51.56V40.14C74.5034 40.02 74.1234 39.94 74.0034 39.9C73.8034 39.86 73.7034 39.7333 73.7034 39.52V38.68H83.9834V42.14ZM101.782 40.12V51.52C102.422 51.64 102.802 51.72 102.922 51.76C103.135 51.8 103.242 51.92 103.242 52.12V53H98.4417V52.12C98.4417 51.92 98.5417 51.8 98.7417 51.76L100.082 51.52V42.46C100.082 42.0467 100.095 41.7333 100.122 41.52L95.2017 50.48C95.0417 50.7867 94.8151 50.94 94.5217 50.94H94.2417C93.9217 50.94 93.6817 50.7867 93.5217 50.48L88.5417 41.54C88.5817 41.8733 88.6017 42.1733 88.6017 42.44V51.52L89.9617 51.76C90.1351 51.8 90.2217 51.92 90.2217 52.12V53H85.4417V52.12C85.4417 51.92 85.5484 51.8 85.7617 51.76L86.8817 51.52V40.12C86.2684 40 85.8951 39.92 85.7617 39.88C85.5484 39.84 85.4417 39.72 85.4417 39.52V38.64H88.3217C88.5084 38.64 88.6417 38.66 88.7217 38.7C88.8417 38.7533 88.9284 38.84 88.9817 38.96L93.9217 47.8C94.0417 48.0133 94.1951 48.36 94.3817 48.84C94.4884 48.5333 94.6417 48.18 94.8417 47.78L99.6817 38.96C99.7351 38.8533 99.8284 38.7667 99.9617 38.7C100.042 38.66 100.175 38.64 100.362 38.64H103.242V39.52C103.242 39.72 103.135 39.84 102.922 39.88L101.782 40.12ZM60.9186 69.84C60.9186 71.2533 60.6253 72.5 60.0386 73.58C59.4519 74.66 58.6253 75.5 57.5586 76.1C56.4919 76.7 55.2586 77 53.8586 77H47.2386V76.16C47.2386 75.9467 47.3453 75.82 47.5586 75.78L48.6786 75.56V64.14L47.5586 63.9C47.3453 63.86 47.2386 63.7333 47.2386 63.52V62.68H53.8586C55.2853 62.68 56.5319 62.9867 57.5986 63.6C58.6653 64.2 59.4853 65.04 60.0586 66.12C60.6319 67.2 60.9186 68.44 60.9186 69.84ZM58.9186 69.84C58.9186 68.1333 58.4786 66.7733 57.5986 65.76C56.7186 64.7467 55.4719 64.24 53.8586 64.24H50.6386V75.44H53.8586C55.4586 75.44 56.6986 74.94 57.5786 73.94C58.4719 72.94 58.9186 71.5733 58.9186 69.84ZM75.6922 75.88C75.8655 75.92 75.9522 76.0267 75.9522 76.2V77H71.8322V76.2C71.8322 76.0267 71.9255 75.92 72.1122 75.88L72.9322 75.64L71.8122 72.76H65.6322L64.5122 75.64L65.3322 75.88C65.5055 75.92 65.5922 76.0267 65.5922 76.2V77H61.4922V76.2C61.4922 76.0267 61.5789 75.92 61.7522 75.88L62.5522 75.64L67.7522 62.68H69.7122L74.8922 75.64L75.6922 75.88ZM69.1522 65.86C69.0455 65.5933 68.8989 65.14 68.7122 64.5C68.5522 65.1133 68.4189 65.5667 68.3122 65.86L66.1722 71.36H71.2722L69.1522 65.86ZM22.7225 90.88H21.7625C21.5092 90.88 21.3625 90.76 21.3225 90.52L21.1625 88.72C20.0425 88.36 19.0358 88.18 18.1425 88.18C16.6358 88.18 15.3958 88.6867 14.4225 89.7C13.4492 90.7533 12.9625 92.1333 12.9625 93.84C12.9625 94.9467 13.1625 95.9267 13.5625 96.78C13.9758 97.6333 14.5558 98.3 15.3025 98.78C16.0625 99.2467 16.9425 99.48 17.9425 99.48C18.7158 99.48 19.3892 99.3867 19.9625 99.2C20.5492 99 21.0958 98.6667 21.6025 98.2C21.7225 98.0933 21.8425 98.04 21.9625 98.04C22.0692 98.04 22.1625 98.08 22.2425 98.16L23.0025 99C21.7625 100.44 20.0425 101.16 17.8425 101.16C16.4558 101.16 15.2425 100.847 14.2025 100.22C13.1758 99.58 12.3825 98.7067 11.8225 97.6C11.2758 96.4933 11.0025 95.24 11.0025 93.84C11.0025 91.6933 11.6692 89.9333 13.0025 88.56C14.3225 87.2 16.1292 86.52 18.4225 86.52C19.4892 86.52 20.9225 86.8533 22.7225 87.52V90.88ZM37.9578 99.88C38.1311 99.92 38.2178 100.027 38.2178 100.2V101H34.0978V100.2C34.0978 100.027 34.1911 99.92 34.3778 99.88L35.1978 99.64L34.0778 96.76H27.8978L26.7778 99.64L27.5978 99.88C27.7711 99.92 27.8578 100.027 27.8578 100.2V101H23.7578V100.2C23.7578 100.027 23.8445 99.92 24.0178 99.88L24.8178 99.64L30.0178 86.68H31.9778L37.1578 99.64L37.9578 99.88ZM31.4178 89.86C31.3111 89.5933 31.1645 89.14 30.9778 88.5C30.8178 89.1133 30.6845 89.5667 30.5778 89.86L28.4378 95.36H33.5378L31.4178 89.86ZM55.727 88.12V99.52C56.367 99.64 56.747 99.72 56.867 99.76C57.0804 99.8 57.187 99.92 57.187 100.12V101H52.387V100.12C52.387 99.92 52.487 99.8 52.687 99.76L54.027 99.52V90.46C54.027 90.0467 54.0404 89.7333 54.067 89.52L49.147 98.48C48.987 98.7867 48.7604 98.94 48.467 98.94H48.187C47.867 98.94 47.627 98.7867 47.467 98.48L42.487 89.54C42.527 89.8733 42.547 90.1733 42.547 90.44V99.52L43.907 99.76C44.0804 99.8 44.167 99.92 44.167 100.12V101H39.387V100.12C39.387 99.92 39.4937 99.8 39.707 99.76L40.827 99.52V88.12C40.2137 88 39.8404 87.92 39.707 87.88C39.4937 87.84 39.387 87.72 39.387 87.52V86.64H42.267C42.4537 86.64 42.587 86.66 42.667 86.7C42.787 86.7533 42.8737 86.84 42.927 86.96L47.867 95.8C47.987 96.0133 48.1404 96.36 48.327 96.84C48.4337 96.5333 48.587 96.18 48.787 95.78L53.627 86.96C53.6804 86.8533 53.7737 86.7667 53.907 86.7C53.987 86.66 54.1204 86.64 54.307 86.64H57.187V87.52C57.187 87.72 57.0804 87.84 56.867 87.88L55.727 88.12ZM61.8291 99.54L63.0491 99.78C63.2091 99.82 63.2891 99.94 63.2891 100.14V101H58.4691V100.14C58.4691 99.9267 58.5624 99.8 58.7491 99.76L59.9091 99.54V88.12L58.7091 87.88C58.5491 87.84 58.4691 87.72 58.4691 87.52V86.68H63.2891V87.52C63.2891 87.7333 63.1891 87.86 62.9891 87.9L61.8291 88.12V99.54ZM71.3628 93.42C72.8028 94.06 73.5228 95.1333 73.5228 96.64C73.5228 97.96 73.1095 99.0333 72.2828 99.86C71.4161 100.727 70.2295 101.16 68.7228 101.16C68.0961 101.16 67.4428 101.1 66.7628 100.98C66.2295 100.887 65.6961 100.76 65.1628 100.6L64.5828 100.4V96.8H65.5628C65.7895 96.8 65.9228 96.9133 65.9628 97.14C65.9895 97.2467 66.0228 97.5733 66.0628 98.12L66.1228 99C67.1628 99.3733 67.9761 99.56 68.5628 99.56C69.1495 99.56 69.6428 99.4933 70.0428 99.36C70.4295 99.24 70.7361 99.06 70.9628 98.82C71.4695 98.3533 71.7228 97.72 71.7228 96.92C71.7228 96.1467 71.3628 95.56 70.6428 95.16C70.3228 94.96 69.9628 94.8 69.5628 94.68C68.1361 94.24 67.2961 93.96 67.0428 93.84C66.6561 93.6667 66.2895 93.4267 65.9428 93.12C65.2361 92.4933 64.8828 91.6 64.8828 90.44C64.8828 89.3867 65.2628 88.48 66.0228 87.72C66.8495 86.92 67.9161 86.52 69.2228 86.52C70.6095 86.52 71.9495 86.7867 73.2428 87.32V90.62H72.2828C72.0428 90.62 71.9028 90.5067 71.8628 90.28C71.8628 90.24 71.8495 90.1067 71.8228 89.88C71.8095 89.64 71.7761 89.18 71.7228 88.5C70.7895 88.2467 70.0028 88.12 69.3628 88.12C68.4961 88.12 67.8295 88.3333 67.3628 88.76C66.9095 89.1733 66.6828 89.7067 66.6828 90.36C66.6828 91.0667 67.0428 91.62 67.7628 92.02C68.0561 92.2067 68.4295 92.3733 68.8828 92.52C70.0828 92.92 70.9228 93.22 71.4028 93.42H71.3628ZM84.96 90.14H84C83.76 90.14 83.62 90.0267 83.58 89.8L83.44 88.26H78.08V93.02H83.36V94.54H78.08V99.44H83.44L83.56 98C83.6 97.7867 83.7467 97.68 84 97.68H84.96V101H74.68V100.16C74.68 99.9467 74.78 99.82 74.98 99.78L76.12 99.56V88.14C75.48 88.02 75.1 87.94 74.98 87.9C74.78 87.86 74.68 87.7333 74.68 87.52V86.68H84.96V90.14ZM97.9783 89.84H96.9983C96.7849 89.84 96.6583 89.7733 96.6183 89.64C96.5516 89.4133 96.4849 88.9733 96.4183 88.32H93.0583V99.56L93.2983 99.6C93.9116 99.72 94.2449 99.7867 94.2983 99.8C94.4316 99.84 94.4983 99.96 94.4983 100.16V101H89.6583V100.16C89.6583 100.053 89.6849 99.9667 89.7383 99.9C89.8049 99.82 89.8916 99.7733 89.9983 99.76L91.0983 99.54V88.3H87.7183C87.6383 89.0467 87.5783 89.4933 87.5383 89.64C87.4983 89.7733 87.3649 89.84 87.1383 89.84H86.1783V86.68H97.9783V89.84ZM111.688 99.88C111.862 99.92 111.948 100.027 111.948 100.2V101H107.828V100.2C107.828 100.027 107.922 99.92 108.108 99.88L108.928 99.64L107.808 96.76H101.628L100.508 99.64L101.328 99.88C101.502 99.92 101.588 100.027 101.588 100.2V101H97.4883V100.2C97.4883 100.027 97.5749 99.92 97.7483 99.88L98.5483 99.64L103.748 86.68H105.708L110.888 99.64L111.688 99.88ZM105.148 89.86C105.042 89.5933 104.895 89.14 104.708 88.5C104.548 89.1133 104.415 89.5667 104.308 89.86L102.168 95.36H107.268L105.148 89.86Z" fill="white"/>
</svg>
