<svg width="22" height="22" viewBox="0 0 22 22" fill="none" xmlns="http://www.w3.org/2000/svg">
<path d="M13.7047 19.9999H8.29492V14.2123C8.29492 13.6773 8.73276 13.2396 9.26789 13.2396H12.7317C13.2668 13.2396 13.7047 13.6773 13.7047 14.2123V19.9999V19.9999Z" stroke="black" stroke-width="3" stroke-linecap="round" stroke-linejoin="round"/>
<path d="M20 10.4091V16.936C20 18.6285 18.6962 20 17.0811 20H4.91892C3.30378 20 2 18.6285 2 16.936V10.4091C2 9.49473 2.37946 8.63875 3.05081 8.05512L9.13189 2.71494C10.2119 1.76169 11.7881 1.76169 12.8681 2.71494L18.9492 8.05512C19.6205 8.63875 20 9.49473 20 10.4091Z" stroke="black" stroke-width="3" stroke-linecap="round" stroke-linejoin="round"/>
</svg>
