<svg width="37" height="19" viewBox="0 0 37 19" fill="none" xmlns="http://www.w3.org/2000/svg">
  <rect x="3.83203" y="2" width="26.862" height="13.3" rx="2" fill="white"/>
  <g clip-path="url(#clip0_880_463)">
  <path d="M10.1711 15.1127V14.3653C10.1789 14.3024 10.1625 14.2393 10.123 14.1803C10.0834 14.1212 10.0216 14.0675 9.94159 14.0227C9.86162 13.9779 9.76534 13.9431 9.65916 13.9205C9.55299 13.898 9.43936 13.8882 9.32585 13.8919C9.17728 13.8865 9.02881 13.9033 8.89595 13.9405C8.76309 13.9778 8.65071 14.0341 8.57054 14.1037C8.49747 14.0362 8.39291 13.9809 8.26789 13.9437C8.14287 13.9064 8.00202 13.8885 7.86019 13.8919C7.73655 13.8884 7.61343 13.9029 7.50303 13.934C7.39262 13.965 7.29876 14.0115 7.23076 14.0688V13.9218H6.76318V15.1127H7.23525V14.4575C7.22521 14.4167 7.23153 14.3753 7.25376 14.3361C7.27598 14.2968 7.31357 14.2608 7.36382 14.2306C7.41408 14.2004 7.47576 14.1767 7.54447 14.1612C7.61318 14.1457 7.68721 14.1388 7.76128 14.141C8.07149 14.141 8.22885 14.2532 8.22885 14.455V15.1177H8.70092V14.4575C8.69129 14.4168 8.6979 14.3754 8.72027 14.3363C8.74265 14.2972 8.78025 14.2613 8.83042 14.2311C8.88059 14.2009 8.94211 14.1772 9.01062 14.1616C9.07914 14.1461 9.15299 14.139 9.22694 14.141C9.54615 14.141 9.69901 14.2532 9.69901 14.455V15.1177L10.1711 15.1127ZM17.1555 13.9218H16.3867V13.5605H15.9146V13.9218H15.4875V14.1585H15.9236V14.7066C15.9236 14.9832 16.1169 15.1476 16.6699 15.1476C16.8765 15.148 17.0791 15.116 17.2544 15.0554L17.1195 14.8337C16.9941 14.8751 16.8518 14.8983 16.7059 14.9009C16.4811 14.9009 16.3957 14.8212 16.3957 14.7016V14.1585H17.16L17.1555 13.9218ZM21.1434 13.8919C21.0294 13.89 20.9166 13.9053 20.8169 13.9359C20.7172 13.9666 20.6343 14.0117 20.5769 14.0663V13.9218H20.1138V15.1127H20.5814V14.445C20.5814 14.2482 20.7342 14.1385 21.031 14.1385C21.131 14.1378 21.2303 14.1479 21.3232 14.1684L21.4671 13.9193C21.3603 13.8981 21.2478 13.8872 21.1344 13.8869L21.1434 13.8919ZM15.1143 14.0165C14.8497 13.9293 14.5454 13.886 14.2376 13.8919C13.6936 13.8919 13.3385 14.0364 13.3385 14.2731C13.3385 14.4674 13.5992 14.587 14.0803 14.6244L14.3051 14.6418C14.5613 14.6618 14.6827 14.6991 14.6827 14.7664C14.6827 14.8586 14.5119 14.9109 14.1927 14.9109C13.9359 14.915 13.6841 14.8711 13.4778 14.7863L13.253 14.9881C13.5254 15.0935 13.8516 15.1477 14.1837 15.1426C14.8041 15.1426 15.1638 14.9807 15.1638 14.7539C15.1638 14.5272 14.8806 14.435 14.413 14.3977L14.1882 14.3802C13.9859 14.3653 13.824 14.3428 13.824 14.2631C13.824 14.1834 13.9769 14.1236 14.2331 14.1236C14.47 14.1251 14.7022 14.1603 14.9075 14.2257L15.1143 14.0165ZM27.6377 13.8919C27.5237 13.89 27.4109 13.9053 27.3112 13.9359C27.2115 13.9666 27.1286 14.0117 27.0712 14.0663V13.9218H26.6081V15.1127H27.0757V14.445C27.0757 14.2482 27.2286 14.1385 27.5253 14.1385C27.6253 14.1378 27.7246 14.1479 27.8175 14.1684L27.9614 13.9193C27.8546 13.8981 27.7421 13.8872 27.6287 13.8869L27.6377 13.8919ZM21.6132 14.5148C21.6076 14.5985 21.6336 14.6819 21.6896 14.7597C21.7455 14.8375 21.8302 14.9079 21.9381 14.9666C22.046 15.0252 22.1748 15.0707 22.3163 15.1001C22.4578 15.1296 22.6088 15.1424 22.7596 15.1376C23.0404 15.1455 23.3163 15.0949 23.5329 14.9956L23.3081 14.7863C23.1465 14.8546 22.9494 14.8922 22.7462 14.8935C22.5733 14.8857 22.4121 14.8422 22.2945 14.7716C22.177 14.7009 22.1117 14.6084 22.1117 14.5123C22.1117 14.4162 22.177 14.3236 22.2945 14.253C22.4121 14.1823 22.5733 14.1388 22.7462 14.1311C22.9494 14.1323 23.1465 14.1699 23.3081 14.2382L23.5329 14.0289C23.3163 13.9297 23.0404 13.879 22.7596 13.8869C22.6088 13.8822 22.4578 13.8949 22.3163 13.9244C22.1748 13.9539 22.046 13.9994 21.9381 14.058C21.8302 14.1166 21.7455 14.1871 21.6896 14.2649C21.6336 14.3427 21.6076 14.4261 21.6132 14.5098V14.5148ZM25.9922 14.5148V13.9218H25.5246V14.0663C25.4452 14.0097 25.3427 13.9643 25.2254 13.934C25.1081 13.9037 24.9796 13.8892 24.8502 13.8919C24.5521 13.8919 24.2663 13.9575 24.0555 14.0743C23.8447 14.1911 23.7263 14.3496 23.7263 14.5148C23.7263 14.68 23.8447 14.8384 24.0555 14.9552C24.2663 15.072 24.5521 15.1376 24.8502 15.1376C24.9796 15.1403 25.1081 15.1258 25.2254 15.0955C25.3427 15.0652 25.4452 15.0198 25.5246 14.9632V15.1077H25.9922V14.5148ZM24.2523 14.5148C24.2597 14.4447 24.304 14.3773 24.3797 14.321C24.4554 14.2646 24.5591 14.2218 24.6781 14.1977C24.7972 14.1737 24.9263 14.1694 25.0497 14.1855C25.173 14.2016 25.2852 14.2373 25.3724 14.2883C25.4595 14.3393 25.5179 14.4032 25.5403 14.4724C25.5626 14.5415 25.5481 14.6127 25.4983 14.6773C25.4485 14.7419 25.3658 14.797 25.2602 14.8359C25.1547 14.8747 25.0309 14.8956 24.9042 14.896C24.8152 14.8966 24.7269 14.887 24.6449 14.8678C24.5629 14.8486 24.489 14.8202 24.4277 14.7844C24.3665 14.7486 24.3193 14.7062 24.2891 14.6597C24.2589 14.6133 24.2464 14.564 24.2523 14.5148ZM18.6099 13.8919C18.3118 13.8942 18.0276 13.962 17.8197 14.0805C17.6119 14.1989 17.4975 14.3583 17.5017 14.5235C17.5058 14.6887 17.6283 14.8462 17.842 14.9614C18.0557 15.0765 18.3433 15.1399 18.6414 15.1376C18.9648 15.1468 19.2829 15.0891 19.5338 14.9757L19.309 14.7838C19.1315 14.8627 18.9116 14.9066 18.6841 14.9084C18.5295 14.9158 18.3759 14.8894 18.2558 14.835C18.1358 14.7806 18.0588 14.7023 18.0412 14.6169H19.6372C19.6372 14.5845 19.6372 14.5521 19.6372 14.5173C19.6372 14.1435 19.2191 13.8944 18.6167 13.8944L18.6099 13.8919ZM18.6099 14.1236C18.6799 14.1228 18.7495 14.1296 18.8147 14.1437C18.8799 14.1577 18.9394 14.1788 18.99 14.2056C19.0405 14.2325 19.081 14.2646 19.1091 14.3001C19.1372 14.3356 19.1525 14.3738 19.1539 14.4126H18.0299C18.0381 14.3326 18.1024 14.2576 18.2091 14.2036C18.3158 14.1496 18.4565 14.1209 18.6009 14.1236H18.6099ZM30.324 14.5173V13.4434H29.8744V14.0663C29.795 14.0097 29.6925 13.9643 29.5752 13.934C29.4579 13.9037 29.3293 13.8892 29.2 13.8919C28.9019 13.8919 28.616 13.9575 28.4053 14.0743C28.1945 14.1911 28.0761 14.3496 28.0761 14.5148C28.0761 14.68 28.1945 14.8384 28.4053 14.9552C28.616 15.072 28.9019 15.1376 29.2 15.1376C29.3293 15.1403 29.4579 15.1258 29.5752 15.0955C29.6925 15.0652 29.795 15.0198 29.8744 14.9632V15.1077H30.324V14.5173ZM31.1041 14.9396C31.1333 14.9394 31.1623 14.9423 31.1895 14.9483C31.2153 14.9541 31.2389 14.9626 31.2592 14.9732C31.2789 14.9839 31.2949 14.9966 31.3064 15.0106C31.3178 15.0251 31.3236 15.0408 31.3236 15.0567C31.3236 15.0725 31.3178 15.0882 31.3064 15.1028C31.2949 15.1167 31.2789 15.1294 31.2592 15.1401C31.2389 15.1508 31.2153 15.1592 31.1895 15.165C31.1626 15.1716 31.1335 15.175 31.1041 15.175C31.0614 15.1748 31.0198 15.1679 30.984 15.1551C30.9482 15.1424 30.9196 15.1242 30.9017 15.1028C30.8905 15.0882 30.8847 15.0725 30.8847 15.0567C30.8847 15.0408 30.8905 15.0251 30.9017 15.0106C30.9132 14.9966 30.9292 14.9839 30.9489 14.9732C30.9692 14.9626 30.9928 14.9541 31.0186 14.9483C31.0479 14.9418 31.0793 14.9389 31.1108 14.9396H31.1041ZM31.1041 15.1501C31.1265 15.1502 31.1487 15.1476 31.1692 15.1426C31.1886 15.1378 31.2061 15.1311 31.2209 15.1227C31.2491 15.1057 31.2647 15.0835 31.2647 15.0604C31.2647 15.0373 31.2491 15.0151 31.2209 14.9981C31.2062 14.9897 31.1886 14.9829 31.1692 14.9782C31.1487 14.9732 31.1265 14.9707 31.1041 14.9707C31.0816 14.9708 31.0595 14.9733 31.0389 14.9782C31.0187 14.9828 31.0003 14.9895 30.9849 14.9981C30.9568 15.0151 30.9412 15.0373 30.9412 15.0604C30.9412 15.0835 30.9568 15.1057 30.9849 15.1227C31.0004 15.1312 31.0187 15.138 31.0389 15.1426C31.0615 15.148 31.0861 15.1506 31.1108 15.1501H31.1041ZM31.1175 15.0018C31.1385 15.0013 31.1592 15.0048 31.176 15.0118C31.1829 15.015 31.1883 15.019 31.1918 15.0235C31.1953 15.0281 31.1968 15.033 31.1962 15.038C31.1965 15.0421 31.1953 15.0462 31.1926 15.0501C31.1899 15.054 31.1858 15.0575 31.1805 15.0604C31.1675 15.067 31.1508 15.0709 31.1333 15.0716L31.1985 15.1127H31.1468L31.0861 15.0716H31.0658V15.1127H31.0231V15.0031L31.1175 15.0018ZM31.0681 15.023V15.0529H31.1175C31.1263 15.0544 31.1357 15.0544 31.1445 15.0529C31.1461 15.0512 31.1469 15.0493 31.1469 15.0473C31.1469 15.0454 31.1461 15.0434 31.1445 15.0417C31.1461 15.04 31.1469 15.0381 31.1469 15.0361C31.1469 15.0342 31.1461 15.0322 31.1445 15.0305C31.1357 15.029 31.1263 15.029 31.1175 15.0305L31.0681 15.023ZM28.5953 14.5173C28.6028 14.4472 28.6471 14.3798 28.7227 14.3235C28.7984 14.2671 28.9022 14.2243 29.0212 14.2002C29.1402 14.1762 29.2694 14.1719 29.3927 14.188C29.5161 14.2041 29.6282 14.2398 29.7154 14.2908C29.8026 14.3418 29.8609 14.4057 29.8833 14.4749C29.9057 14.544 29.8911 14.6152 29.8414 14.6798C29.7916 14.7444 29.7088 14.7995 29.6033 14.8383C29.4977 14.8772 29.374 14.8981 29.2472 14.8984C29.1582 14.8991 29.07 14.8895 28.988 14.8703C28.906 14.8511 28.832 14.8227 28.7708 14.7869C28.7096 14.7511 28.6624 14.7086 28.6322 14.6622C28.602 14.6158 28.5894 14.5665 28.5953 14.5173ZM12.8079 14.5173V13.9218H12.3404V14.0663C12.261 14.0097 12.1584 13.9643 12.0411 13.934C11.9239 13.9037 11.7953 13.8892 11.666 13.8919C11.3679 13.8919 11.082 13.9575 10.8712 14.0743C10.6604 14.1911 10.542 14.3496 10.542 14.5148C10.542 14.68 10.6604 14.8384 10.8712 14.9552C11.082 15.072 11.3679 15.1376 11.666 15.1376C11.7953 15.1403 11.9239 15.1258 12.0411 15.0955C12.1584 15.0652 12.261 15.0198 12.3404 14.9632V15.1077H12.8079V14.5173ZM11.068 14.5173C11.0755 14.4472 11.1198 14.3798 11.1954 14.3235C11.2711 14.2671 11.3748 14.2243 11.4939 14.2002C11.6129 14.1762 11.7421 14.1719 11.8654 14.188C11.9888 14.2041 12.1009 14.2398 12.1881 14.2908C12.2753 14.3418 12.3336 14.4057 12.356 14.4749C12.3784 14.544 12.3638 14.6152 12.314 14.6798C12.2643 14.7444 12.1815 14.7995 12.076 14.8383C11.9704 14.8772 11.8466 14.8981 11.7199 14.8984C11.6305 14.8994 11.5418 14.8901 11.4592 14.871C11.3767 14.852 11.3022 14.8237 11.2405 14.7878C11.1788 14.752 11.1312 14.7094 11.1007 14.6628C11.0703 14.6163 11.0576 14.5667 11.0635 14.5173H11.068Z" fill="#231F20"/>
  <path d="M22.0405 4.8465H14.9595V11.8987H22.0405V4.8465Z" fill="#FF5F00"/>
  <path d="M15.409 8.37336C15.4076 7.69409 15.6853 7.02356 16.2208 6.41255C16.7563 5.80154 17.5357 5.26606 18.4999 4.84666C17.306 4.32672 15.8723 4.00339 14.3625 3.91365C12.8528 3.8239 11.3279 3.97135 9.96219 4.33914C8.59649 4.70693 7.44506 5.28023 6.63949 5.99351C5.83393 6.70679 5.40674 7.53128 5.40674 8.37274C5.40674 9.2142 5.83393 10.0387 6.63949 10.752C7.44506 11.4653 8.59649 12.0386 9.96219 12.4063C11.3279 12.7741 12.8528 12.9216 14.3625 12.8318C15.8723 12.7421 17.306 12.4188 18.4999 11.8988C17.536 11.4796 16.7568 10.9443 16.2213 10.3335C15.6858 9.72271 15.408 9.05242 15.409 8.37336Z" fill="#EB001B"/>
  <path d="M31.5943 8.37321C31.5943 9.21474 31.167 10.0393 30.3613 10.7526C29.5556 11.4659 28.404 12.0392 27.0381 12.4069C25.6723 12.7747 24.1472 12.922 22.6374 12.8321C21.1275 12.7423 19.6938 12.4188 18.5 11.8987C19.4635 11.479 20.2425 10.9436 20.7782 10.3328C21.3138 9.72197 21.5921 9.05171 21.5921 8.37259C21.5921 7.69346 21.3138 7.02321 20.7782 6.41239C20.2425 5.80157 19.4635 5.26615 18.5 4.84651C19.6938 4.3264 21.1275 4.00292 22.6374 3.91304C24.1472 3.82317 25.6723 3.97052 27.0381 4.33826C28.404 4.706 29.5556 5.27929 30.3613 5.9926C31.167 6.7059 31.5943 7.53044 31.5943 8.37197V8.37321Z" fill="#F79E1B"/>
  <path d="M30.821 11.1512V11.0067H30.9267V10.9768H30.6592V11.0067H30.7738V11.1512H30.821ZM31.3403 11.1512V10.9768H31.2594L31.165 11.1014L31.0706 10.9768H30.9986V11.1512H31.0571V11.0204L31.1447 11.1338H31.2054L31.2931 11.0204V11.1525L31.3403 11.1512Z" fill="#F79E1B"/>
  </g>
  <rect x="0.1" y="0.1" width="36.8" height="18.8" rx="1.9" stroke="black" stroke-width="0.2"/>
  <defs>
  <clipPath id="clip0_880_463">
  <rect width="33" height="15" fill="white" transform="translate(2 2)"/>
  </clipPath>
  </defs>
  </svg>
  