<svg width="36" height="31" viewBox="0 0 36 31" fill="none" xmlns="http://www.w3.org/2000/svg">
<path d="M15.0002 0.333252C9.54183 0.333252 5.10433 3.88325 5.10433 8.24992C5.10433 12.5333 9.29183 15.9999 14.7502 16.1499C14.9168 16.1333 15.0835 16.1333 15.2085 16.1499H15.3543C17.9155 16.0816 20.343 15.219 22.1237 13.7448C23.9043 12.2705 24.8985 10.3 24.896 8.24992C24.896 3.88325 20.4585 0.333252 15.0002 0.333252ZM25.5835 20.5816C19.771 17.4816 10.2918 17.4816 4.43766 20.5816C1.79183 21.9983 0.333496 23.9149 0.333496 25.9649C0.333496 28.0149 1.79183 29.9149 4.41683 31.3149C7.3335 32.8816 11.1668 33.6649 15.0002 33.6649C18.8335 33.6649 22.6668 32.8816 25.5835 31.3149C28.2085 29.8983 29.6668 27.9983 29.6668 25.9316C29.646 23.8816 28.2085 21.9816 25.5835 20.5816Z" fill="white"/>
</svg>
   