<svg width="19" height="19" viewBox="0 0 19 19" fill="none" xmlns="http://www.w3.org/2000/svg">
  <path d="M19 1.83173V17.1683C19 18.1986 18.1942 19 17.1679 19H1.83214C0.818527 18.9958 0 18.2071 0 17.164V1.83173C0 0.809864 0.797321 0 1.83214 0H17.1721C18.19 0 19 0.797143 19 1.83173ZM17.4181 17.164V1.83173C17.4181 1.70453 17.3078 1.58581 17.1721 1.58581H16.7777L12.0998 4.74894L9.5 2.63312L6.90446 4.74894L2.22656 1.58157H1.83214C1.69643 1.58157 1.58616 1.70029 1.58616 1.82749V17.164C1.58616 17.2912 1.69643 17.41 1.83214 17.41H17.1721C17.3078 17.4142 17.4181 17.2955 17.4181 17.164ZM6.37009 6.52979V8.09864H3.2529V6.52979H6.37009ZM6.37009 9.68445V11.266H3.2529V9.68445H6.37009ZM6.84085 3.43874L9.13103 1.58581H4.10536L6.84085 3.43874ZM15.7471 6.52979V8.09864H7.4346V6.52979H15.7471ZM15.7471 9.68445V11.266H7.4346V9.68445H15.7471ZM12.1592 3.43874L14.8946 1.58581H9.87321L12.1592 3.43874ZM15.7471 12.8476V14.4291H11.5315V12.8476H15.7471Z" fill="#2B1262"/>
  </svg>