<svg width="100" height="35" viewBox="0 0 100 35" fill="none" xmlns="http://www.w3.org/2000/svg">
<rect width="100" height="35" fill="white"/>
<g clip-path="url(#clip0_112_492)">
<g opacity="0.2">
<path d="M33.1966 9.7643C33.4627 9.90442 33.7666 9.97952 34.0769 9.98179C34.5783 9.98179 34.8708 9.73742 34.8708 9.4124C34.8708 9.08738 34.6675 8.92365 34.1549 8.75014C33.5337 8.55708 33.1521 8.27605 33.1521 7.80685C33.1521 7.28878 33.6424 6.90266 34.3806 6.90266C34.6704 6.89484 34.9578 6.95114 35.2163 7.0664L35.0798 7.4183C34.8581 7.31349 34.6101 7.25889 34.3583 7.25945C33.8401 7.25945 33.6424 7.53071 33.6424 7.7482C33.6424 8.05856 33.8736 8.21252 34.3973 8.39091C35.0408 8.6084 35.3667 8.87966 35.3667 9.36841C35.3667 9.85716 34.9377 10.3312 34.0407 10.3312C33.702 10.3354 33.3679 10.2622 33.0713 10.1186L33.1966 9.7643Z" fill="#848484"/>
<path d="M37.5533 10.2897L37.5143 9.98911H37.4976C37.4007 10.1026 37.2743 10.1941 37.129 10.2562C36.9836 10.3182 36.8235 10.349 36.6619 10.3459C36.5546 10.353 36.4467 10.3405 36.3452 10.3091C36.2436 10.2777 36.1506 10.2282 36.0721 10.1636C35.9935 10.0991 35.9311 10.0209 35.8888 9.93408C35.8464 9.84724 35.8251 9.75364 35.8262 9.65921C35.8262 9.08004 36.4112 8.7648 37.467 8.76968V8.72081C37.4792 8.64632 37.4717 8.57035 37.445 8.49882C37.4183 8.4273 37.3731 8.36215 37.313 8.30846C37.2529 8.25477 37.1794 8.21399 37.0984 8.18929C37.0173 8.16459 36.9309 8.15665 36.8458 8.16608C36.5948 8.16687 36.3489 8.22861 36.1354 8.34447L36.0351 8.05366C36.3057 7.91083 36.6164 7.83719 36.9321 7.84106C37.7678 7.84106 37.9684 8.32981 37.9684 8.81856V9.71297C37.9645 9.90516 37.9794 10.0973 38.013 10.2873H37.5617L37.5533 10.2897ZM37.4809 9.06782C36.9405 9.06782 36.3248 9.14113 36.3248 9.60545C36.3199 9.66068 36.3286 9.71621 36.3503 9.76824C36.372 9.82028 36.4062 9.86761 36.4506 9.90702C36.495 9.94643 36.5485 9.977 36.6076 9.99665C36.6666 10.0163 36.7298 10.0246 36.7928 10.0209C36.9372 10.0246 37.0792 9.98774 37.198 9.91563C37.3168 9.84352 37.4062 9.73997 37.4531 9.62011C37.4707 9.57526 37.4801 9.52824 37.4809 9.48081V9.06538V9.06782Z" fill="#848484"/>
<path d="M38.8209 10.2897V8.22717H38.4365V7.88749H38.8209V7.78241C38.8069 7.63171 38.8276 7.48008 38.8817 7.33651C38.9357 7.19294 39.0221 7.06037 39.1357 6.94665C39.3164 6.79956 39.5551 6.71982 39.8015 6.72427C39.9463 6.72344 40.09 6.74666 40.2249 6.79269L40.1581 7.12993C40.0589 7.09207 39.9514 7.07372 39.8433 7.07617C39.4199 7.07617 39.314 7.40363 39.314 7.76775V7.88749H39.9742V8.21984H39.314V10.2799H38.8209V10.2897Z" fill="#848484"/>
<path d="M40.6064 9.17047C40.5955 9.28113 40.6122 9.39254 40.6553 9.497C40.6983 9.60145 40.7667 9.69646 40.8557 9.77546C40.9447 9.85447 41.0522 9.91558 41.1708 9.95458C41.2893 9.99358 41.4161 10.0095 41.5424 10.0013C41.8013 10.0081 42.0589 9.96558 42.2973 9.87671L42.3809 10.1871C42.0935 10.2924 41.784 10.3432 41.4727 10.3361C40.637 10.3361 40.1328 9.84739 40.1328 9.12892C40.1328 8.41046 40.6175 7.83862 41.4114 7.83862C42.3029 7.83862 42.5257 8.52532 42.5257 8.96519C42.5249 9.03304 42.5193 9.10078 42.509 9.16802H40.5924L40.6064 9.17047ZM42.0605 8.865C42.0605 8.58885 41.9296 8.15875 41.3724 8.15875C40.871 8.15875 40.6509 8.56442 40.6119 8.865H42.0605Z" fill="#848484"/>
</g>
<path opacity="0.3" d="M30.4996 11.8904V11.839C30.5017 11.8073 30.5017 11.7755 30.4996 11.7437C30.5026 11.7055 30.5026 11.6671 30.4996 11.6289C30.473 11.3794 30.3567 11.1439 30.1674 10.9563C29.9781 10.7687 29.7256 10.6388 29.4466 10.5854L29.2822 10.5756C27.8114 10.4192 22.8501 9.76186 20.4655 7.86062C20.3602 7.74548 20.2375 7.64353 20.1006 7.5576C19.7749 7.35518 19.3855 7.24646 18.9863 7.24646C18.5872 7.24646 18.1978 7.35518 17.8721 7.5576C17.7375 7.64225 17.6166 7.74255 17.5127 7.85574C15.0947 9.77164 10.0889 10.4217 8.60688 10.5756H8.54002C8.25418 10.628 7.99531 10.7601 7.80202 10.9521C7.60874 11.1441 7.49141 11.3858 7.46754 11.6411C7.46525 11.6728 7.46525 11.7047 7.46754 11.7364C7.46606 11.7608 7.46606 11.7853 7.46754 11.8097V11.8708C7.46754 11.9124 7.46754 11.9564 7.46754 11.9979C7.46754 12.0394 7.46754 12.0394 7.46754 12.059C7.46754 12.0785 7.46754 12.1421 7.46754 12.1812C7.60403 20.6243 10.6516 24.9424 13.1921 27.0807C16.0029 29.4536 18.7941 29.7689 18.9111 29.7689H18.9891H19.0671C19.1841 29.7689 21.9726 29.4536 24.7834 27.0807C27.3155 24.9449 30.3547 20.6292 30.5024 12.2105C30.5024 12.1641 30.5024 12.1176 30.5024 12.0712C30.5024 12.0248 30.5024 12.0223 30.5024 11.993C30.5024 11.9637 30.4996 11.9246 30.4996 11.8904Z" fill="#303030"/>
<path d="M29.9626 11.7828C29.9626 11.7633 29.9626 11.7437 29.9626 11.7242C29.9626 11.7046 29.9626 11.6851 29.9626 11.668C29.9495 11.5437 29.8916 11.4264 29.7975 11.3328C29.7034 11.2393 29.5778 11.1744 29.4389 11.1475L29.3498 11.1377C27.6032 10.952 22.6001 10.2579 20.1124 8.23695C20.04 8.15131 19.9526 8.07626 19.8534 8.01457C19.6418 7.88272 19.3887 7.81189 19.1291 7.81189C18.8696 7.81189 18.6164 7.88272 18.4048 8.01457C18.3077 8.07582 18.2222 8.15003 18.1513 8.23451C15.6275 10.2873 10.5074 10.974 8.83321 11.1475C8.68935 11.174 8.55939 11.2412 8.46328 11.3387C8.36716 11.4363 8.3102 11.5588 8.30114 11.6875C8.30114 11.6997 8.30114 11.712 8.30114 11.7266C8.30114 11.7413 8.30114 11.7535 8.30114 11.7657C8.30114 11.8439 8.30114 11.927 8.30114 12.0101C8.30114 12.0248 8.30114 12.0394 8.30114 12.0565C8.29936 12.0875 8.29936 12.1185 8.30114 12.1494C8.52957 28.0924 19.1207 29.1481 19.1207 29.1481C19.1207 29.1481 29.7064 28.0827 29.9571 12.147C29.9594 12.112 29.9594 12.0769 29.9571 12.0419C29.9571 12.0223 29.9571 12.0028 29.9571 11.9832C29.9626 11.9221 29.9598 11.8513 29.9626 11.7828Z" fill="#51B848"/>
<g style="mix-blend-mode:multiply">
<path d="M19.1232 1.40912H4.31445V32.3886H19.1232V1.40912Z" fill="#51B848"/>
</g>
<path d="M19.0921 29.2728H19.0141C18.8971 29.2728 16.1058 28.9551 13.2951 26.5847C10.7601 24.4464 7.72372 20.1283 7.57886 11.6998C7.57886 11.6582 7.57886 11.6191 7.57886 11.5776C7.57886 11.536 7.57886 11.536 7.57886 11.5165C7.57886 11.4969 7.57886 11.4334 7.57886 11.3894V11.3088C7.57739 11.2844 7.57739 11.2599 7.57886 11.2355C7.57658 11.2037 7.57658 11.1719 7.57886 11.1402C7.60543 10.8873 7.72364 10.6487 7.91615 10.4591C8.10867 10.2696 8.36536 10.1391 8.64857 10.0869H8.71542C10.2002 9.93294 15.2033 9.2829 17.6129 7.36211C17.7168 7.24897 17.8377 7.14868 17.9723 7.06398C18.298 6.86155 18.6873 6.75284 19.0865 6.75284C19.4857 6.75284 19.8751 6.86155 20.2008 7.06398C20.3394 7.14409 20.4649 7.24027 20.5741 7.34989C22.9614 9.25113 27.9199 9.9085 29.3908 10.0649L29.5551 10.0869C29.8342 10.1403 30.0866 10.2702 30.2759 10.4578C30.4652 10.6454 30.5816 10.8809 30.6081 11.1304C30.6112 11.1686 30.6112 11.207 30.6081 11.2452C30.6103 11.277 30.6103 11.3088 30.6081 11.3405V11.3919C30.6081 11.4261 30.6081 11.4627 30.6081 11.4969C30.6081 11.5312 30.6081 11.5507 30.6081 11.5751C30.6081 11.5996 30.6081 11.668 30.6081 11.7144C30.4633 20.1258 27.4185 24.4415 24.8919 26.5773C22.0811 28.9478 19.2927 29.2532 19.1757 29.2655L19.0921 29.2728ZM8.92714 11.5751C8.92714 11.5751 8.92714 11.5922 8.92714 11.5996V11.6509C9.04971 19.6835 11.88 23.7352 14.2199 25.7196C16.4485 27.6037 18.6353 28.0094 19.0754 28.0729C19.5155 28.0045 21.7636 27.5842 24.0033 25.6609C27.3405 22.8115 29.1512 17.9704 29.2515 11.6631V11.6045C29.2523 11.5923 29.2523 11.58 29.2515 11.5678V11.5018C29.2515 11.4652 29.2515 11.4261 29.2515 11.3894V11.2477H29.2236C27.1984 11.0326 22.2037 10.3019 19.6075 8.19299L19.5601 8.15389L19.5211 8.10746C19.4914 8.07267 19.4557 8.04217 19.4152 8.01704C19.3189 7.95795 19.2041 7.92627 19.0865 7.92627C18.9689 7.92627 18.8542 7.95795 18.7578 8.01704C18.7175 8.04136 18.6818 8.07104 18.652 8.10501L18.613 8.15144L18.5656 8.19054C15.9777 10.2971 11.008 11.0277 8.92992 11.2477V11.3821C8.92992 11.4261 8.92992 11.4725 8.92992 11.514V11.5751H8.92714Z" fill="#DCDBDB"/>
<g style="mix-blend-mode:multiply">
<path d="M25.7281 13.7769C25.4928 13.7772 25.2651 13.8499 25.0846 13.9822L24.9509 14.0995L17.0395 21.0398L14.5853 18.8844C14.537 18.831 14.4818 18.7826 14.421 18.7402C14.2263 18.603 13.9806 18.5338 13.7313 18.546C13.4819 18.5582 13.2465 18.6509 13.0704 18.8063C12.8944 18.9617 12.7901 19.1687 12.7776 19.3875C12.7652 19.6063 12.8455 19.8214 13.0031 19.9914L13.1591 20.1258L15.6272 22.291L16.2874 22.8701L16.4378 23.0021C16.6113 23.1241 16.827 23.1905 17.0493 23.1905C17.2716 23.1905 17.4872 23.1241 17.6607 23.0021C17.7206 22.9605 17.7749 22.9129 17.8223 22.8604L18.4769 22.2861L26.3716 15.3507L26.5108 15.2188C26.6297 15.0887 26.7043 14.9319 26.7262 14.7663C26.7481 14.6007 26.7164 14.4331 26.6347 14.2826C26.553 14.1321 26.4246 14.0048 26.2643 13.9154C26.1039 13.826 25.9181 13.778 25.7281 13.7769Z" fill="#BDBEC0"/>
</g>
<path d="M25.728 13.2955C25.4928 13.2958 25.2651 13.3685 25.0845 13.5008L24.9508 13.6181L17.0395 20.5584L14.5853 18.3956C14.5024 18.3045 14.3999 18.2286 14.2836 18.1722C14.1673 18.1158 14.0395 18.0801 13.9074 18.067C13.7754 18.054 13.6417 18.0639 13.514 18.0961C13.3863 18.1284 13.2671 18.1824 13.1632 18.2551C13.0593 18.3278 12.9727 18.4177 12.9085 18.5198C12.8442 18.6218 12.8035 18.734 12.7886 18.8498C12.7737 18.9656 12.785 19.0829 12.8218 19.1949C12.8586 19.307 12.9202 19.4115 13.003 19.5027L13.159 19.6395L15.6188 21.8169L16.279 22.3961L16.4294 22.528C16.6029 22.65 16.8186 22.7164 17.0409 22.7164C17.2632 22.7164 17.4789 22.65 17.6523 22.528C17.7122 22.4864 17.7664 22.4388 17.8139 22.3863L18.4658 21.8169L26.3715 14.8693L26.5136 14.7447C26.6351 14.6146 26.7119 14.4568 26.7351 14.2898C26.7582 14.1229 26.7268 13.9535 26.6445 13.8016C26.5621 13.6497 26.4323 13.5215 26.27 13.4319C26.1077 13.3423 25.9198 13.295 25.728 13.2955Z" fill="#E7E7E7"/>
<path d="M33.1968 9.56392C33.4628 9.70404 33.7668 9.77914 34.0771 9.78141C34.5785 9.78141 34.871 9.53704 34.871 9.21202C34.871 8.887 34.6676 8.72327 34.1551 8.54976C33.5339 8.35671 33.1522 8.07567 33.1522 7.60647C33.1522 7.0884 33.6425 6.70229 34.3807 6.70229C34.6705 6.69446 34.9579 6.75077 35.2164 6.86602L35.0799 7.21792C34.8601 7.11305 34.6142 7.05763 34.364 7.05663C33.8459 7.05663 33.6481 7.32789 33.6481 7.54538C33.6481 7.85574 33.8793 8.00969 34.403 8.18809C35.0465 8.40558 35.3724 8.67684 35.3724 9.16559C35.3724 9.65434 34.9378 10.1235 34.0436 10.1235C33.7049 10.1277 33.3708 10.0545 33.0742 9.91093L33.1968 9.56392Z" fill="#848484"/>
<path d="M37.5533 10.0869L37.5143 9.78629H37.4976C37.4007 9.89975 37.2743 9.99131 37.129 10.0534C36.9836 10.1154 36.8235 10.1462 36.6619 10.1431C36.5546 10.1502 36.4467 10.1377 36.3452 10.1063C36.2436 10.0749 36.1506 10.0254 36.0721 9.96082C35.9935 9.89626 35.9311 9.81809 35.8888 9.73125C35.8464 9.64442 35.8251 9.55082 35.8262 9.45639C35.8262 8.87722 36.4112 8.56197 37.467 8.56686V8.51799C37.4792 8.44349 37.4717 8.36753 37.445 8.296C37.4183 8.22448 37.3731 8.15933 37.313 8.10564C37.2529 8.05195 37.1794 8.01117 37.0984 7.98647C37.0173 7.96177 36.9309 7.95383 36.8458 7.96325C36.5948 7.96404 36.3489 8.02579 36.1354 8.14165L36.0351 7.85329C36.3057 7.71045 36.6164 7.63681 36.9321 7.64068C37.7678 7.64068 37.9684 8.12943 37.9684 8.61818V9.51259C37.9645 9.70479 37.9794 9.89692 38.013 10.0869H37.5617H37.5533ZM37.4809 8.865C36.9405 8.865 36.3248 8.93831 36.3248 9.40262C36.3199 9.45786 36.3286 9.51339 36.3503 9.56542C36.372 9.61746 36.4062 9.66479 36.4506 9.7042C36.495 9.74361 36.5485 9.77418 36.6076 9.79383C36.6666 9.81347 36.7298 9.82174 36.7928 9.81806C36.9372 9.8218 37.0792 9.78491 37.198 9.71281C37.3168 9.6407 37.4062 9.53714 37.4531 9.41729C37.4707 9.37243 37.4801 9.32542 37.4809 9.27799V8.865Z" fill="#848484"/>
<path d="M38.8209 10.0869V8.0268H38.4365V7.69445H38.8209V7.58203C38.8069 7.43133 38.8276 7.2797 38.8817 7.13613C38.9357 6.99257 39.0221 6.85999 39.1357 6.74627C39.3164 6.59918 39.5551 6.51944 39.8015 6.52389C39.9463 6.52306 40.09 6.54628 40.2249 6.59231L40.1581 6.92955C40.0589 6.89169 39.9514 6.87334 39.8433 6.87579C39.4199 6.87579 39.314 7.20325 39.314 7.56737V7.69689H39.9742V8.02924H39.314V10.0869H38.8209Z" fill="#848484"/>
<path d="M40.6064 8.97008C40.5955 9.08075 40.6122 9.19216 40.6553 9.29661C40.6983 9.40107 40.7667 9.49608 40.8557 9.57508C40.9447 9.65408 41.0522 9.7152 41.1708 9.75419C41.2893 9.79319 41.4161 9.80915 41.5424 9.80096C41.8013 9.80772 42.0589 9.7652 42.2973 9.67633L42.3809 9.98669C42.0935 10.092 41.784 10.1428 41.4727 10.1358C40.637 10.1358 40.1328 9.647 40.1328 8.92854C40.1328 8.21008 40.6175 7.64313 41.4114 7.64313C42.3029 7.64313 42.5257 8.32982 42.5257 8.7697C42.5249 8.83755 42.5193 8.90528 42.509 8.97253H40.5924L40.6064 8.97008ZM42.0605 8.65973C42.0605 8.38358 41.9296 7.95348 41.3724 7.95348C40.871 7.95348 40.6509 8.35915 40.6119 8.65973H42.0605Z" fill="#848484"/>
<path d="M44.3643 6.80003C44.6601 6.75229 44.9605 6.72937 45.2612 6.73161C45.6305 6.70247 45.9997 6.78905 46.3031 6.97598C46.4062 7.04391 46.4889 7.13276 46.5442 7.23492C46.5995 7.33707 46.6258 7.44948 46.6207 7.56248C46.6146 7.72844 46.5492 7.88853 46.4337 8.02009C46.3182 8.15165 46.1585 8.24803 45.9772 8.29561C46.1972 8.33489 46.3951 8.43941 46.5377 8.5916C46.6802 8.7438 46.7587 8.9344 46.7599 9.13137C46.7622 9.25598 46.7348 9.37963 46.6797 9.49447C46.6245 9.60932 46.5428 9.71286 46.4396 9.79852C46.161 10.0111 45.746 10.1089 45.1275 10.1089C44.8728 10.1165 44.6178 10.1091 44.3643 10.0869V6.80003ZM44.8545 8.16365H45.3002C45.8184 8.16365 46.136 7.91927 46.136 7.60403C46.136 7.21303 45.7989 7.05907 45.3002 7.05907C45.1546 7.0556 45.009 7.06543 44.8657 7.0884V8.1612L44.8545 8.16365ZM44.8545 9.75942C44.9912 9.77545 45.129 9.78199 45.2668 9.77897C45.7738 9.77897 46.2418 9.61524 46.2418 9.13137C46.2418 8.64751 45.7961 8.48867 45.2612 8.48867H44.8545V9.75942Z" fill="#848484"/>
<path d="M47.4002 8.44223C47.4002 8.1612 47.4002 7.91927 47.3779 7.69689H47.8125L47.8292 8.16609H47.8515C47.8984 8.02021 47.9966 7.89107 48.1322 7.79714C48.2678 7.7032 48.4338 7.6493 48.6064 7.64312C48.6543 7.64247 48.7021 7.6474 48.7485 7.65779V8.06834C48.6927 8.05772 48.6357 8.0528 48.5786 8.05367C48.4076 8.0599 48.2452 8.12114 48.1224 8.22572C47.9996 8.33029 47.925 8.47087 47.9128 8.62063C47.8989 8.68757 47.8915 8.75542 47.8905 8.82346V10.0869H47.4002V8.44223Z" fill="#848484"/>
<path d="M51.6543 8.865C51.6543 9.74964 50.9551 10.1358 50.2977 10.1358C49.5595 10.1358 48.9912 9.66167 48.9912 8.91388C48.9912 8.11233 49.5873 7.64313 50.3423 7.64313C51.0972 7.64313 51.6543 8.13188 51.6543 8.865ZM49.4899 8.88944C49.4899 9.4124 49.8325 9.80829 50.3256 9.80829C50.8186 9.80829 51.1613 9.41729 51.1613 8.87967C51.1613 8.474 50.93 7.96081 50.3451 7.96081C49.7601 7.96081 49.4899 8.44223 49.4899 8.89677V8.88944Z" fill="#848484"/>
<path d="M52.4368 7.69446L52.7961 8.91633C52.8741 9.1827 52.9494 9.42952 52.9995 9.67634H53.0274C53.0886 9.43197 53.1806 9.18759 53.2697 8.92122L53.7154 7.69935H54.1333L54.5567 8.89678C54.657 9.1827 54.7378 9.43685 54.7991 9.67878H54.8158C54.8689 9.41655 54.9387 9.15711 55.0247 8.90167L55.4147 7.69935H55.905L55.0136 10.0869H54.5623L54.1416 8.94566C54.0456 8.68717 53.9647 8.42453 53.8993 8.15877C53.8341 8.42666 53.7513 8.69103 53.6514 8.95055L53.2029 10.0869H52.7488L51.9131 7.69446H52.4201H52.4368Z" fill="#848484"/>
<path d="M56.2868 9.64211C56.4834 9.75024 56.7094 9.81015 56.9414 9.81562C57.3008 9.81562 57.4707 9.65678 57.4707 9.45883C57.4707 9.26089 57.3286 9.1387 56.9637 9.01896C56.4734 8.865 56.2422 8.62796 56.2422 8.34204C56.2422 7.95592 56.596 7.64068 57.1838 7.64068C57.4185 7.63869 57.6498 7.69005 57.8551 7.78975L57.7325 8.10499C57.5652 8.01414 57.3723 7.96591 57.1754 7.9657C57.1207 7.95849 57.0648 7.96135 57.0115 7.97412C56.9581 7.98689 56.9083 8.00928 56.8653 8.03986C56.8223 8.07044 56.7871 8.10854 56.7618 8.15173C56.7365 8.19492 56.7218 8.24226 56.7186 8.29072C56.7186 8.48866 56.8829 8.57664 57.2367 8.69638C57.7103 8.85522 57.9526 9.06294 57.9526 9.42951C57.9526 9.84983 57.5821 10.1455 56.9331 10.1455C56.6659 10.1496 56.4021 10.0932 56.167 9.98179L56.2868 9.64211Z" fill="#848484"/>
<path d="M59.1364 7.02241C59.1364 7.0937 59.1041 7.16207 59.0467 7.21249C58.9892 7.2629 58.9113 7.29122 58.83 7.29122C58.7487 7.29122 58.6708 7.2629 58.6133 7.21249C58.5558 7.16207 58.5236 7.0937 58.5236 7.02241C58.5224 6.98651 58.5296 6.95078 58.5447 6.91742C58.5599 6.88405 58.5826 6.85374 58.6116 6.82835C58.6405 6.80295 58.6751 6.78301 58.7131 6.76974C58.7511 6.75646 58.7918 6.75014 58.8328 6.75115C58.8734 6.7501 58.9139 6.75643 58.9517 6.76976C58.9894 6.78308 59.0236 6.80311 59.0521 6.82858C59.0807 6.85405 59.1029 6.88442 59.1174 6.91777C59.1319 6.95113 59.1383 6.98675 59.1364 7.02241ZM58.5793 10.0869V7.69444H59.0751V10.0869H58.5793Z" fill="#848484"/>
<path d="M59.9031 8.34204C59.9031 8.09766 59.9031 7.89239 59.8809 7.69444H60.321L60.3489 8.09033C60.4395 7.94923 60.5727 7.83282 60.734 7.75391C60.8952 7.675 61.0781 7.63667 61.2626 7.64313C61.6414 7.64313 62.2264 7.84107 62.2264 8.66217V10.0869H61.7306V8.7086C61.7306 8.32249 61.5662 8.00236 61.0982 8.00236C60.9083 8.00872 60.7288 8.08006 60.5981 8.2011C60.4674 8.32214 60.3959 8.48326 60.399 8.64995V10.0869H59.9031V8.34204Z" fill="#848484"/>
<path d="M65.379 7.69444C65.379 7.86794 65.3567 8.061 65.3567 8.35181V9.73986C65.3567 10.2897 65.2313 10.6245 64.9667 10.8322C64.6883 11.0325 64.3346 11.1345 63.975 11.1181C63.6575 11.1252 63.3437 11.0568 63.0669 10.9202L63.1922 10.5878C63.4341 10.7135 63.7106 10.7786 63.9917 10.776C64.4987 10.776 64.872 10.5316 64.872 9.94024V9.67632C64.7809 9.8079 64.6511 9.9155 64.4962 9.98776C64.3413 10.06 64.167 10.0943 63.9917 10.0869C63.3148 10.0869 62.8301 9.58346 62.8301 8.9212C62.8301 8.10987 63.4318 7.65045 64.0586 7.65045C64.2305 7.64189 64.4017 7.67641 64.5521 7.74996C64.7026 7.82352 64.8261 7.93309 64.9082 8.06589L64.9305 7.70421H65.365L65.379 7.69444ZM64.8664 8.63772C64.8695 8.57085 64.86 8.504 64.8386 8.43978C64.7968 8.30685 64.7062 8.18974 64.5807 8.10666C64.4553 8.02358 64.3021 7.97917 64.1449 7.98036C63.6714 7.98036 63.3343 8.33226 63.3343 8.88454C63.3343 9.35374 63.6129 9.74474 64.1393 9.74474C64.293 9.74421 64.4425 9.70084 64.5661 9.62089C64.6898 9.54094 64.7813 9.42855 64.8274 9.29998C64.8556 9.22095 64.8688 9.13839 64.8664 9.05561V8.64017V8.63772Z" fill="#848484"/>
<path fill-rule="evenodd" clip-rule="evenodd" d="M89.6229 18.2808C89.9238 18.1708 89.9461 18.1537 89.8347 17.8751C89.2023 16.2891 86.8178 15.4314 84.787 16.1645C83.9636 16.4843 83.2641 17.0074 82.7739 17.67C82.2837 18.3327 82.0239 19.1061 82.0264 19.8961C82.0264 22.1346 83.8677 24.1238 86.3693 24.1238C87.517 24.1238 88.3192 23.9845 89.0575 23.5813C89.2135 23.4542 90.0909 22.8481 90.0993 22.7064C89.9864 22.7452 89.8805 22.7979 89.7845 22.8628C89.1295 23.1141 88.4212 23.2407 87.7064 23.2343C86.3609 23.2563 85.2884 22.4523 84.5864 21.4968C84.1259 20.8758 83.8465 20.1649 83.773 19.4269C83.6616 18.2686 83.9847 16.9343 85.4778 16.6068C85.9496 16.5079 86.4464 16.5667 86.8714 16.7719C87.2963 16.977 87.6189 17.3137 87.776 17.7163C87.9404 18.0975 87.8429 18.2954 87.439 18.4494L83.8482 19.7641L85.0628 19.8399C86.5197 19.3096 88.1521 18.8111 89.609 18.2808H89.6229Z" fill="#848484"/>
<path fill-rule="evenodd" clip-rule="evenodd" d="M78.5728 11.8268H81.2526C80.9897 11.9497 80.7671 12.1298 80.6063 12.3498C80.4944 12.5816 80.4384 12.8312 80.442 13.0829C80.286 16.2232 80.3807 19.3854 80.3584 22.5256C80.3723 23.3809 80.7567 23.2807 82.0298 23.2587C81.7992 23.4568 81.5514 23.639 81.2888 23.8037C80.1439 23.8037 79.0603 23.7817 77.907 23.7817C78.3388 23.3907 78.5588 23.139 78.5282 22.1639C78.5505 18.882 78.4028 15.7344 78.6313 12.5746C78.0936 12.5893 77.6061 12.5746 77.0713 12.5942C77.5783 12.3645 78.0574 12.0419 78.5895 11.8366L78.5728 11.8268Z" fill="#848484"/>
<path fill-rule="evenodd" clip-rule="evenodd" d="M73.7286 24.3291C73.9208 24.4537 74.1214 24.5735 74.3303 24.6883C75.4446 25.3139 75.8151 26.0788 75.7231 26.785C75.6117 27.6355 74.6813 28.3075 73.0879 28.393C71.3858 28.4835 69.096 27.9043 69.5194 25.9297C69.745 24.8838 71.3273 24.3437 72.6366 24.3046C72.9987 24.3046 73.3664 24.3217 73.7286 24.3315V24.3291ZM77.5756 16.1572L76.4279 16.8097H75.1242C75.6735 17.1484 76.0939 17.6244 76.3304 18.1757C76.59 18.7545 76.6009 19.3963 76.361 19.9816C76.0853 20.5789 75.581 21.0732 74.9348 21.3795C74.7717 21.4463 74.6295 21.5468 74.5203 21.6723C74.4112 21.7979 74.3383 21.9447 74.308 22.1004C74.2411 22.8335 75.2635 23.3662 75.8541 23.7548C77.1466 24.6028 77.6508 25.9957 76.7956 27.3398C75.9794 28.6252 74.0322 29.197 71.968 29.2044C69.4024 29.2044 67.7895 28.1633 67.6976 26.7606C67.5861 24.9449 69.7088 24.0725 71.6282 23.8843C72.1158 23.8375 72.6074 23.8318 73.0962 23.8672C72.4165 23.4762 72.163 22.6771 72.5112 22.1419C72.6004 22.0026 72.5447 22.0515 72.3719 22.0735C71.5957 22.1713 70.8054 22.0172 70.1494 21.6402C69.4934 21.2631 69.0168 20.689 68.8091 20.0256C68.6319 19.3646 68.7113 18.6705 69.0347 18.0535C69.6838 16.8316 71.1295 16.1498 72.7313 16.1498C74.4027 16.1498 75.9432 16.1498 77.5756 16.1498V16.1572ZM74.6896 19.1434C74.893 20.2309 74.5782 21.2597 73.4584 21.531C72.3385 21.8022 71.0432 21.0276 70.6365 19.6273C70.1908 18.0902 70.6532 17.1151 71.7312 16.8219C73.0099 16.4724 74.3776 17.4841 74.6869 19.1434H74.6896Z" fill="#848484"/>
<path fill-rule="evenodd" clip-rule="evenodd" d="M62.9972 15.9299C66.0615 15.9299 67.6772 17.7236 67.8193 19.8252C67.9613 21.9269 65.9946 23.7915 63.5878 24.0163C60.6935 24.2851 58.1641 22.5354 58.1641 19.9841C58.1641 17.7529 60.3341 15.9323 62.9972 15.9323V15.9299ZM65.9027 20.0843C66.0782 21.6238 65.4904 23.0534 63.9137 23.3736C62.337 23.6937 60.596 22.55 60.1698 20.5461C59.7018 18.3614 60.4762 16.9221 61.9972 16.5677C63.7995 16.1474 65.6353 17.7456 65.8971 20.0965L65.9027 20.0843Z" fill="#848484"/>
<path fill-rule="evenodd" clip-rule="evenodd" d="M52.4571 15.9299C55.5687 15.9299 57.1928 17.7236 57.3376 19.8252C57.4825 21.9269 55.4907 23.7915 53.0532 24.0163C50.1227 24.2851 47.5654 22.5354 47.5654 19.9841C47.5654 17.7529 49.7633 15.9323 52.4571 15.9323V15.9299ZM55.396 20.1063C55.5743 21.6458 54.9781 23.0754 53.3847 23.3956C51.7913 23.7157 50.0252 22.55 49.5934 20.5461C49.1198 18.3614 49.9026 16.9221 51.4431 16.5677C53.2677 16.1474 55.1258 17.7456 55.396 20.0965V20.1063Z" fill="#848484"/>
<path fill-rule="evenodd" clip-rule="evenodd" d="M44.7233 14.8082L46.1162 13.557C43.7427 11.8317 39.6701 11.602 36.9707 12.8043C34.6224 13.8454 32.9176 15.9128 32.834 18.2221C32.8141 19.2692 33.0924 20.3041 33.6435 21.2331C34.1946 22.162 35.0012 22.9557 35.9902 23.5422C38.6867 25.138 43.3639 24.7836 46.1802 23.5422V23.3027V20.7539L46.8349 20.0794H42.7371L41.2161 20.8394L44.169 20.7636V23.0094C44.169 23.3271 44.169 23.3785 43.5756 23.5495C42.7055 23.7342 41.8066 23.7912 40.9153 23.7181C37.968 23.5031 35.72 21.4601 35.1879 18.9113C34.6837 16.4944 35.9818 14.2071 38.1797 13.2638C39.339 12.7362 40.6893 12.6334 41.9348 12.9778C42.8299 13.2371 43.6404 13.6823 44.2971 14.2755L43.8152 15.0453L44.7233 14.818V14.8082Z" fill="#848484"/>
</g>
<defs>
<clipPath id="clip0_112_492">
<rect x="4" y="3" width="91" height="29" rx="2" fill="white"/>
</clipPath>
</defs>
</svg>
