<svg width="44" height="28" viewBox="0 0 44 28" fill="none" xmlns="http://www.w3.org/2000/svg">
<rect width="44" height="28" rx="2" fill="white"/>
<path d="M10.2139 14.813L9.17806 9.97207C9.10536 9.68974 8.92776 9.44312 8.6791 9.27922C8.43044 9.11531 8.1281 9.04557 7.82968 9.08329H3.03677L3 9.31437C6.72645 10.1795 9.19032 12.277 10.2139 14.813ZM13.6952 9.18994L10.6674 16.6617L10.3548 15.5359C9.36826 13.6807 7.88714 12.1138 6.06452 10.9971L8.82871 20.128H12.0955L16.9619 9.18994H13.6952ZM18.2184 9.18994L16.2877 20.1517H19.3523L21.289 9.18994H18.2184ZM38.4994 9.18994H36.0968C35.7607 9.14759 35.4195 9.21419 35.1267 9.37931C34.8339 9.54442 34.606 9.79873 34.4787 10.1024L29.9126 20.1398H33.1548C33.1548 20.1398 33.6819 18.7889 33.8045 18.4926H37.7577C37.8497 18.8718 38.1316 20.128 38.1316 20.128H41L38.4994 9.18994ZM34.6932 16.2528C34.9506 15.6248 35.919 13.1895 35.919 13.1895C35.919 13.1895 36.1765 12.5614 36.3297 12.1466L36.5442 13.0888L37.2552 16.2528H34.6932ZM27.5161 13.5806C26.4435 13.0769 25.7816 12.7332 25.7877 12.2237C25.7939 11.7141 26.3455 11.2816 27.5529 11.2816C28.3453 11.2611 29.1331 11.4045 29.8636 11.7022L30.1455 11.8267L30.5623 9.45658C29.6764 9.14636 28.7402 8.99184 27.7981 9.00033C24.7335 9.00033 22.5945 10.4816 22.5761 12.6147C22.5761 14.1849 24.1084 15.0678 25.279 15.5774C26.4497 16.0869 26.9032 16.4602 26.9032 16.9402C26.9032 17.6749 25.941 18.0126 25.0645 18.0126C24.0618 18.035 23.0673 17.8322 22.1594 17.4201L21.761 17.2424L21.3258 19.6954C22.4275 20.0926 23.5945 20.2933 24.7703 20.2879C28.0126 20.2879 30.121 18.8185 30.1455 16.5432C30.1394 15.3107 29.3181 14.3627 27.5161 13.5806V13.5806Z" fill="#273991"/>
<path d="M9.17806 9.97206C9.10536 9.68972 8.92776 9.44311 8.6791 9.2792C8.43044 9.1153 8.1281 9.04556 7.82968 9.08327H3.03677L3 9.31436C6.72645 10.1854 9.19032 12.277 10.2139 14.8189L9.17806 9.97206Z" fill="#F99F1B"/>
</svg>
